<?xml version="1.0" encoding="UTF-8" standalone="no"?>
<svg
   version="1.0"
   width="5500pt"
   height="3183pt"
   viewBox="0 0 5500 3183"
   preserveAspectRatio="xMidYMid"
   id="svg440"
   sodipodi:docname="k3s-architecture-single-server-dark.svg"
   inkscape:version="1.2.2 (732a01da63, 2022-12-09, custom)"
   xmlns:inkscape="http://www.inkscape.org/namespaces/inkscape"
   xmlns:sodipodi="http://sodipodi.sourceforge.net/DTD/sodipodi-0.dtd"
   xmlns="http://www.w3.org/2000/svg"
   xmlns:svg="http://www.w3.org/2000/svg">
  <defs
     id="defs444" />
  <sodipodi:namedview
     id="namedview442"
     pagecolor="#ffffff"
     bordercolor="#000000"
     borderopacity="0.25"
     inkscape:showpageshadow="2"
     inkscape:pageopacity="0.0"
     inkscape:pagecheckerboard="0"
     inkscape:deskcolor="#d1d1d1"
     inkscape:document-units="pt"
     showgrid="false"
     inkscape:zoom="1.3693074"
     inkscape:cx="1730.802"
     inkscape:cy="1619.4318"
     inkscape:window-width="3370"
     inkscape:window-height="1376"
     inkscape:window-x="70"
     inkscape:window-y="27"
     inkscape:window-maximized="1"
     inkscape:current-layer="g438" />
  <style
     type="text/css"
     id="style18">
	.st0{fill:#FFF4D2;}
	.st1{fill:#FFF4D2;}
	.st2{fill:#FFE8A4;}
	.st3{fill:#33313B;}
	.st4{fill:#FFC61C;}
	.st5{fill:none;stroke:#33313B;stroke-width:3;stroke-miterlimit:10;}
	.st6{fill:#FFC61C;}
	.st7{fill:none;stroke:#33313B;stroke-width:3;stroke-linecap:round;stroke-linejoin:round;stroke-dasharray:10,8;}
	.st8{fill:none;stroke:#33313B;stroke-width:3;stroke-linecap:round;stroke-linejoin:round;stroke-miterlimit:10;stroke-dasharray:10,8;}
	.st9{fill:#FFE8A4;}
</style>
  <path
     class="st1"
     d="M 38.957454,3115.9944 39.172675,46.949301 c 8.27e-4,-11.955008 6.628088,-21.426478 20.155046,-21.426273 l 5379.464979,0.07498 c 20.1197,0 25.1657,9.653695 25.1657,21.487117 V 3116.4008 c 0,11.8335 -5.8539,22.2652 -25.9734,22.2652 l -5370.704466,0.01 c -20.119741,0 -28.323824,-10.8481 -28.322997,-22.6815 z"
     id="path1175"
     style="display:inline;fill:#000000;fill-opacity:0;stroke-width:18.156;stroke:#ffe8a4;stroke-opacity:1;stroke-dasharray:none"
     sodipodi:nodetypes="ssssssssss"
     inkscape:label="background" />
  <g
     id="g1726"
     inkscape:label="nodes"
     transform="matrix(0.85674875,0,0,1,815.31863,-162.21944)"
     style="fill:#ffe8a4;fill-opacity:1">
    <g
       id="g4080"
       transform="matrix(4.5256417,0,0,7.0347888,-1669.7271,-2108.1675)"
       style="display:inline;fill:#ffe8a4;fill-opacity:1"
       class="st0"
       inkscape:label="server">
      <path
         d="m 387.9458,592.49175 h 196.09631 c 3.51248,0 6.35992,-1.64262 6.35992,-3.66907 V 450.24164 c 0,-2.02645 -2.84744,-3.66907 -6.35992,-3.66907 H 387.9458 c -3.51247,0 -6.35992,1.64262 -6.35992,3.66907 v 138.58104 c 0,2.02645 2.84745,3.66907 6.35992,3.66907 z"
         id="path3210"
         style="display:inline;fill:#ffe8a4;fill-opacity:1;stroke-width:1.0854" />
    </g>
    <g
       id="g4151"
       transform="matrix(5.4084029,0,0,4.3007922,-379.51631,-170.36526)"
       style="display:inline;fill:#ffe8a4;fill-opacity:1">
      <path
         d="m 403.05454,341.05729 h 163.35642 c 3.33999,0 6.07273,2.69995 6.07273,6 v 79.3999 c 0,3.30005 -2.73274,6 -6.07273,6 H 403.05454 c -3.34,0 -6.07273,-2.69995 -6.07273,-6 v -79.3999 c 0,-3.30005 2.73274,-6 6.07273,-6 z"
         id="path4145"
         style="fill:#ffe8a4;fill-opacity:1;stroke-width:1.00604" />
      <path
         d="m 403.11869,185.78874 h 163.35642 c 3.33999,0 6.07273,2.69995 6.07273,6 v 79.3999 c 0,3.30005 -2.73274,6 -6.07273,6 H 403.11869 c -3.34,0 -6.07273,-2.69995 -6.07273,-6 v -79.3999 c 0,-3.30005 2.73274,-6 6.07273,-6 z"
         id="path4147"
         style="fill:#ffe8a4;fill-opacity:1;stroke-width:1.00604" />
      <path
         d="m 402.94707,495.59791 h 163.35642 c 3.33999,0 6.07273,2.69995 6.07273,6 v 79.3999 c 0,3.30005 -2.73274,6 -6.07273,6 H 402.94707 c -3.34,0 -6.07273,-2.69995 -6.07273,-6 v -79.3999 c 0,-3.30005 2.73274,-6 6.07273,-6 z"
         id="path4149"
         style="fill:#ffe8a4;fill-opacity:1;stroke-width:1.00604" />
    </g>
    <path
       d="m 37644.342,24694.353 h 8106.531 c 165.75,0 301.366,-116.12 301.366,-258.048 V 21021.48 c 0,-141.928 -135.616,-258.047 -301.366,-258.047 h -8106.531 c -165.748,0 -301.36,116.119 -301.36,258.047 v 3414.825 c 0,141.928 135.613,258.048 301.36,258.048 z"
       id="path3206"
       style="display:inline;fill:#ffe8a4;fill-opacity:1;stroke-width:46.4775"
       transform="matrix(0.09999999,0,0,-0.10000001,-241.00976,3437.8818)" />
  </g>
  <path
     d="M 967.89847,1732.6641 H 1571.604 c 10.8136,0 19.5798,-8.7628 19.5798,-19.5731 V 973.81229 c 0,-10.81029 -8.7662,-19.5731 -19.5798,-19.5731 H 967.89847 c -10.81358,0 -19.57978,8.76281 -19.57978,19.5731 V 1713.091 c 0,10.8103 8.7662,19.5731 19.57978,19.5731 z"
     id="path2205"
     style="display:inline;fill:#fff4d2;fill-opacity:1;stroke-width:4.39866" />
  <g
     transform="matrix(0.1,0,0,-0.1,0,3183)"
     fill="#000000"
     stroke="none"
     id="g438"
     style="display:inline;fill:#33313b;fill-opacity:1"
     inkscape:label="text">
    <path
       d="m 29440,25450 c 0,-55 -2,-100 -5,-100 -3,0 -19,10 -35,22 -36,26 -131,36 -182,19 -43,-14 -93,-62 -121,-115 -16,-32 -21,-59 -21,-121 -1,-70 3,-87 29,-134 18,-32 46,-64 69,-80 34,-22 50,-26 116,-26 68,0 80,3 113,28 l 37,28 v -30 -31 h 70 70 v 320 320 h -70 -70 z m -41,-210 c 47,-48 47,-122 -1,-170 -56,-56 -146,-31 -167,47 -14,49 -4,89 31,124 41,41 95,41 137,-1 z"
       id="path80"
       style="fill:#33313b;fill-opacity:1" />
    <path
       d="m 24987,25418 c -20,-57 -67,-194 -106,-306 l -70,-203 81,3 81,3 17,50 17,50 h 108 108 l 17,-50 17,-50 81,-3 81,-3 -85,248 c -48,136 -95,274 -106,306 l -20,57 h -93 -93 z m 163,-183 c 17,-49 30,-92 30,-97 0,-4 -29,-8 -65,-8 -36,0 -65,3 -65,7 0,16 62,194 66,190 2,-2 18,-44 34,-92 z"
       id="path82"
       style="fill:#33313b;fill-opacity:1" />
    <path
       d="m 27870,25215 v -305 h 75 75 l 2,185 3,184 119,-184 119,-185 h 73 74 v 305 305 h -75 -75 l -2,-181 -3,-181 -115,181 -115,180 -77,1 h -78 z"
       id="path84"
       style="fill:#33313b;fill-opacity:1" />
    <path
       d="m 27260,25455 c 0,-48 -2,-55 -20,-55 -18,0 -20,-7 -20,-65 0,-58 2,-65 20,-65 19,0 20,-7 20,-120 0,-192 25,-227 171,-237 l 79,-6 v 67 66 h -38 c -21,0 -43,5 -50,12 -8,8 -12,48 -12,115 v 103 h 50 50 v 65 65 h -50 -50 v 55 55 h -75 -75 z"
       id="path86"
       style="fill:#33313b;fill-opacity:1" />
    <path
       d="m 25585,25384 c -89,-48 -131,-126 -129,-240 1,-88 37,-163 98,-203 34,-22 50,-26 116,-26 69,0 80,3 115,29 l 38,29 -6,-53 c -4,-29 -13,-63 -22,-77 -33,-50 -117,-54 -160,-7 -20,21 -31,24 -94,24 h -73 l 7,-32 c 23,-103 98,-151 240,-152 116,-1 190,38 226,119 17,36 19,70 19,323 v 282 h -70 c -68,0 -70,-1 -70,-25 0,-31 -3,-31 -41,-3 -40,30 -149,36 -194,12 z m 193,-143 c 74,-74 31,-201 -68,-201 -48,0 -86,30 -99,77 -22,77 27,153 99,153 29,0 46,-7 68,-29 z"
       id="path90"
       style="fill:#33313b;fill-opacity:1" />
    <path
       d="m 26205,25388 c -54,-19 -97,-59 -122,-116 -22,-47 -25,-64 -21,-131 7,-121 55,-190 151,-221 55,-17 163,-9 211,16 42,22 90,74 101,112 6,22 5,22 -78,22 -60,0 -88,-4 -96,-14 -30,-36 -107,-22 -131,24 -15,28 -9,29 170,32 l 155,3 -1,53 c -3,107 -63,193 -153,220 -47,14 -145,14 -186,0 z m 160,-143 c 14,-13 25,-29 25,-35 0,-6 -34,-10 -91,-10 -96,0 -98,1 -56,48 29,31 90,30 122,-3 z"
       id="path92"
       style="fill:#33313b;fill-opacity:1" />
    <path
       d="m 26640,25155 v -245 h 75 75 v 149 c 0,146 1,150 26,180 20,24 34,31 63,31 82,0 101,-43 101,-232 v -128 h 70 70 v 178 c 0,168 -1,182 -23,223 -35,65 -84,91 -169,87 -50,-3 -75,-9 -97,-26 -38,-28 -41,-28 -41,3 0,24 -2,25 -75,25 h -75 z"
       id="path94"
       style="fill:#33313b;fill-opacity:1" />
    <path
       d="m 28661,25386 c -49,-18 -111,-74 -132,-120 -21,-47 -25,-139 -8,-201 14,-52 90,-126 145,-143 51,-15 153,-16 191,-1 100,37 153,118 153,234 0,119 -60,206 -161,235 -46,13 -146,11 -188,-4 z m 150,-126 c 26,-15 49,-62 49,-105 0,-51 -26,-94 -66,-111 -31,-13 -39,-13 -70,2 -103,49 -76,223 34,224 18,0 42,-5 53,-10 z"
       id="path96"
       style="fill:#33313b;fill-opacity:1" />
    <path
       d="m 29825,25388 c -92,-32 -145,-117 -145,-233 0,-120 54,-203 153,-235 55,-17 163,-9 211,16 42,22 90,74 101,112 6,22 5,22 -78,22 -60,0 -88,-4 -96,-14 -30,-36 -107,-22 -131,24 -15,28 -9,29 170,32 l 155,3 -1,53 c -3,107 -63,193 -153,220 -47,14 -145,14 -186,0 z m 160,-143 c 14,-13 25,-29 25,-35 0,-6 -34,-10 -91,-10 -96,0 -98,1 -56,48 29,31 90,30 122,-3 z"
       id="path98"
       style="fill:#33313b;fill-opacity:1" />
    <g
       id="g1742"
       inkscape:label="loadbalancer"
       style="fill:#33313b;fill-opacity:1">
      <path
         d="m 42735,22519 v -100 l -32,23 c -28,19 -46,23 -109,23 -65,0 -81,-4 -117,-27 -22,-15 -54,-49 -69,-75 -25,-43 -28,-57 -28,-138 0,-69 5,-98 19,-125 43,-82 104,-120 191,-120 59,0 85,9 123,43 l 22,20 v -31 -32 h 75 75 v 320 320 h -75 -75 z m -34,-213 c 29,-29 34,-41 34,-81 0,-40 -5,-52 -34,-81 -45,-45 -92,-47 -138,-5 -30,27 -33,35 -33,86 0,51 3,59 33,86 46,42 93,40 138,-5 z"
         id="path120"
         style="fill:#33313b;fill-opacity:1" />
      <path
         d="m 40825,22285 v -305 h 165 165 v 60 60 h -90 -90 v 245 245 h -75 -75 z"
         id="path124"
         style="fill:#33313b;fill-opacity:1" />
      <path
         d="m 41355,22457 c -50,-16 -126,-93 -139,-142 -28,-103 -7,-199 59,-266 55,-55 110,-73 208,-67 141,8 222,97 222,244 0,120 -48,194 -147,230 -45,16 -154,16 -203,1 z m 181,-161 c 23,-38 25,-113 3,-144 -21,-31 -69,-54 -98,-46 -13,3 -37,19 -52,35 -25,26 -29,39 -29,84 0,46 4,58 29,84 16,16 38,32 50,33 36,6 77,-13 97,-46 z"
         id="path132"
         style="fill:#33313b;fill-opacity:1" />
      <path
         d="m 41900,22454 c -87,-47 -128,-121 -129,-229 0,-112 57,-208 142,-236 57,-19 144,-7 186,25 l 36,27 v -30 -31 h 70 70 v 245 245 h -70 c -68,0 -70,-1 -70,-25 0,-31 -3,-31 -41,-3 -40,30 -149,36 -194,12 z m 186,-135 c 36,-26 52,-81 38,-131 -32,-119 -199,-95 -199,28 0,25 5,55 11,67 29,57 97,74 150,36 z"
         id="path134"
         style="fill:#33313b;fill-opacity:1" />
      <path
         d="m 41055,21260 v -320 h 70 70 v 320 320 h -70 -70 z"
         id="path152"
         style="fill:#33313b;fill-opacity:1" />
      <path
         d="m 39865,21245 v -307 l 178,4 c 155,3 182,6 216,24 61,31 81,65 81,134 0,68 -20,103 -79,136 l -37,21 32,13 c 66,28 92,136 49,205 -37,60 -74,70 -267,73 l -173,3 z m 273,184 c 28,-15 37,-28 37,-58 0,-44 -26,-61 -97,-61 h -63 v 65 65 h 51 c 28,0 60,-5 72,-11 z m 36,-265 c 12,-15 21,-32 21,-39 0,-7 -9,-24 -21,-39 -19,-24 -27,-26 -90,-26 h -69 v 65 65 h 69 c 63,0 71,-2 90,-26 z"
         id="path154"
         style="fill:#33313b;fill-opacity:1" />
      <path
         d="m 40540,21411 c -87,-40 -125,-110 -125,-228 0,-94 20,-143 78,-195 66,-59 179,-66 247,-14 l 35,27 v -30 -31 h 75 75 v 245 245 h -75 c -73,0 -75,-1 -75,-25 0,-14 -2,-25 -5,-25 -2,0 -21,11 -41,25 -46,31 -129,34 -189,6 z m 188,-132 c 83,-64 39,-209 -62,-209 -62,1 -101,47 -101,120 0,34 6,48 34,76 41,41 89,46 129,13 z"
         id="path158"
         style="fill:#33313b;fill-opacity:1" />
      <path
         d="m 41416,21409 c -83,-43 -127,-133 -119,-249 10,-137 90,-220 213,-220 59,0 85,9 123,43 l 22,20 v -31 -32 h 75 75 v 245 245 h -75 c -74,0 -75,0 -75,-26 v -25 l -32,23 c -48,33 -148,37 -207,7 z m 200,-137 c 26,-23 33,-38 37,-80 4,-49 2,-54 -31,-87 -46,-46 -92,-48 -139,-6 -30,27 -33,35 -33,86 0,51 3,59 33,86 43,39 90,39 133,1 z"
         id="path160"
         style="fill:#33313b;fill-opacity:1" />
      <path
         d="m 41935,21185 v -245 h 75 75 v 154 c 0,152 0,153 26,180 36,35 95,36 129,1 24,-24 25,-28 25,-180 v -155 h 75 75 v 173 c 0,166 -1,175 -26,224 -31,64 -83,93 -163,93 -55,0 -82,-10 -118,-43 l -23,-20 v 31 32 h -75 -75 z"
         id="path162"
         style="fill:#33313b;fill-opacity:1" />
      <path
         d="m 42627,21404 c -29,-14 -61,-39 -73,-56 -47,-65 -62,-179 -34,-257 23,-67 54,-102 113,-129 47,-21 64,-24 132,-20 57,3 86,10 114,27 43,27 82,75 91,114 l 7,27 h -77 c -68,0 -81,-3 -108,-26 -49,-41 -107,-16 -128,57 -33,109 62,209 134,141 20,-19 35,-22 100,-22 46,0 77,4 77,10 0,27 -30,78 -63,107 -69,60 -195,72 -285,27 z"
         id="path164"
         style="fill:#33313b;fill-opacity:1" />
      <path
         d="m 43144,21402 c -39,-20 -62,-41 -84,-77 -27,-44 -30,-56 -30,-134 0,-73 4,-94 26,-136 37,-73 99,-109 195,-113 85,-5 133,9 180,51 34,29 64,75 64,97 0,20 -140,12 -187,-11 -38,-18 -48,-19 -74,-9 -29,12 -49,37 -49,59 0,7 55,11 165,11 h 165 v 43 c 0,152 -98,247 -255,247 -49,0 -74,-6 -116,-28 z m 193,-129 c 37,-34 23,-43 -67,-43 -93,0 -104,9 -62,47 38,36 87,34 129,-4 z"
         id="path166"
         style="fill:#33313b;fill-opacity:1" />
      <path
         d="m 43605,21185 v -245 h 75 75 v 125 c 0,175 19,215 104,215 h 36 v 75 c 0,71 -1,75 -22,75 -28,0 -87,-34 -94,-55 -11,-27 -24,-16 -24,20 v 35 h -75 -75 z"
         id="path168"
         style="fill:#33313b;fill-opacity:1" />
    </g>
    <path
       d="m 29440,18794 v -105 l -36,27 c -42,32 -121,43 -179,24 -110,-36 -173,-168 -145,-303 23,-113 99,-177 210,-177 64,0 90,9 128,43 l 22,20 v -31 -32 h 70 70 v 320 320 h -70 -70 z m -51,-200 c 17,-14 35,-41 40,-60 25,-91 -54,-173 -134,-140 -45,19 -68,57 -68,113 0,40 4,50 36,80 45,41 83,43 126,7 z"
       id="path192"
       style="fill:#33313b;fill-opacity:1" />
    <path
       d="m 24965,18703 c -32,-93 -79,-230 -106,-306 l -48,-138 81,3 82,3 15,48 15,48 110,-3 110,-3 15,-47 15,-48 h 82 83 l -60,173 c -33,94 -80,232 -106,305 l -46,132 h -92 -92 z m 185,-118 c 17,-49 30,-92 30,-97 0,-4 -29,-8 -65,-8 -36,0 -65,3 -65,7 0,16 62,194 66,190 2,-2 18,-44 34,-92 z"
       id="path196"
       style="fill:#33313b;fill-opacity:1" />
    <path
       d="m 27870,18565 v -305 h 75 75 l 2,184 3,184 118,-184 119,-184 h 74 74 v 305 305 h -75 -75 l -2,-182 -3,-182 -116,180 -115,179 -77,3 -77,3 z"
       id="path198"
       style="fill:#33313b;fill-opacity:1" />
    <path
       d="m 27260,18800 c 0,-53 -2,-60 -20,-60 -18,0 -20,-7 -20,-60 0,-53 2,-60 20,-60 19,0 20,-7 21,-122 0,-68 5,-139 12,-158 18,-50 63,-72 158,-78 l 79,-5 v 67 66 h -38 c -21,0 -43,5 -50,12 -8,8 -12,48 -12,115 v 103 h 50 50 v 60 60 h -50 -50 v 60 60 h -75 -75 z"
       id="path200"
       style="fill:#33313b;fill-opacity:1" />
    <path
       d="m 25585,18732 c -49,-23 -98,-78 -116,-129 -8,-21 -13,-70 -13,-109 0,-94 30,-156 98,-201 42,-29 57,-33 113,-33 67,0 93,8 131,43 l 22,20 v -29 c 0,-121 -85,-179 -174,-119 -31,21 -49,25 -107,25 h -69 l 6,-27 c 22,-92 82,-137 202,-149 125,-13 223,32 263,121 17,36 19,71 19,318 v 277 h -70 c -68,0 -70,-1 -70,-26 v -25 l -36,28 c -48,36 -139,43 -199,15 z m 192,-145 c 32,-30 36,-40 36,-80 0,-56 -23,-94 -68,-113 -80,-33 -159,49 -134,140 5,19 23,46 40,60 43,36 81,34 126,-7 z"
       id="path202"
       style="fill:#33313b;fill-opacity:1" />
    <path
       d="m 26218,18741 c -97,-32 -149,-103 -156,-217 -11,-168 75,-263 236,-264 106,0 179,37 218,112 24,45 19,48 -71,48 -47,0 -85,-4 -85,-8 0,-12 -46,-32 -71,-32 -11,0 -35,15 -52,33 l -32,32 170,5 170,5 -1,55 c -3,148 -82,230 -229,236 -38,2 -82,-1 -97,-5 z m 146,-146 c 14,-13 26,-29 26,-35 0,-6 -34,-10 -90,-10 -87,0 -90,1 -80,19 28,54 100,67 144,26 z"
       id="path204"
       style="fill:#33313b;fill-opacity:1" />
    <path
       d="m 26860,18739 c -14,-6 -35,-20 -47,-31 l -23,-21 v 26 c 0,27 0,27 -75,27 h -75 v -240 -240 h 75 75 v 151 151 l 29,29 c 53,53 131,33 151,-39 5,-20 10,-94 10,-164 v -128 h 70 70 v 178 c 0,167 -1,182 -23,222 -30,57 -90,90 -161,89 -28,0 -62,-5 -76,-10 z"
       id="path206"
       style="fill:#33313b;fill-opacity:1" />
    <path
       d="m 28680,18741 c -79,-26 -142,-84 -159,-148 -17,-59 -13,-153 8,-198 44,-96 124,-139 249,-134 66,3 86,9 128,34 69,42 104,112 104,207 0,108 -38,176 -125,220 -43,23 -161,34 -205,19 z m 150,-158 c 30,-33 32,-41 28,-90 -13,-156 -198,-141 -198,16 0,58 47,111 100,111 31,0 44,-7 70,-37 z"
       id="path208"
       style="fill:#33313b;fill-opacity:1" />
    <path
       d="m 29829,18737 c -98,-37 -149,-114 -149,-226 0,-35 5,-81 11,-102 16,-52 64,-108 113,-130 56,-25 176,-25 231,0 38,17 105,81 105,101 0,4 3,15 6,24 5,14 -5,16 -76,16 -67,0 -87,-4 -107,-20 -37,-29 -70,-25 -106,13 l -32,32 167,3 c 190,3 186,1 173,90 -20,136 -93,202 -230,209 -43,2 -84,-2 -106,-10 z m 155,-143 c 14,-15 26,-31 26,-35 0,-5 -41,-9 -90,-9 -87,0 -90,1 -80,19 29,55 101,67 144,25 z"
       id="path210"
       style="fill:#33313b;fill-opacity:1" />
    <path
       d="m 13023,18325 c -63,-44 -22,-155 57,-155 78,0 116,93 63,153 -20,21 -90,23 -120,2 z"
       id="path212"
       style="fill:#33313b;fill-opacity:1" />
    <g
       id="g3429"
       inkscape:label="embedded sqlite database">
      <path
         d="m 11730,19020 v -320 h 75 c 75,0 75,0 75,27 v 26 l 23,-21 c 66,-62 186,-54 260,16 100,94 101,279 3,377 -35,34 -55,45 -99,55 -65,13 -128,1 -164,-33 l -23,-20 v 106 107 h -75 -75 z m 313,12 c 56,-50 57,-133 1,-182 -47,-41 -86,-40 -130,4 -29,29 -34,41 -34,81 0,57 12,80 53,106 36,22 79,19 110,-9 z"
         id="path176"
         style="fill:#33313b;fill-opacity:1" />
      <path
         d="m 13210,19235 v -105 l -41,27 c -58,38 -146,38 -212,0 -145,-85 -150,-339 -8,-434 64,-43 167,-42 220,2 36,31 41,31 41,0 0,-24 2,-25 75,-25 h 75 v 320 320 h -75 -75 z m -47,-203 c 56,-50 57,-133 1,-182 -47,-41 -86,-40 -130,4 -29,29 -34,41 -34,81 0,57 12,80 53,106 36,22 79,19 110,-9 z"
         id="path178"
         style="fill:#33313b;fill-opacity:1" />
      <path
         d="m 13810,19235 v -104 l -35,23 c -101,69 -240,25 -300,-94 -23,-45 -31,-156 -15,-206 30,-94 116,-164 202,-164 42,0 102,22 130,47 17,15 18,14 18,-10 0,-27 0,-27 75,-27 h 75 v 320 320 h -75 -75 z m -60,-190 c 90,-47 72,-202 -25,-221 -99,-18 -164,117 -93,193 40,44 73,51 118,28 z"
         id="path180"
         style="fill:#33313b;fill-opacity:1" />
      <path
         d="m 14960,19234 c 0,-96 -1,-104 -16,-90 -46,47 -149,55 -222,17 -137,-71 -163,-301 -45,-413 72,-69 195,-77 260,-16 l 23,21 v -26 c 0,-27 0,-27 75,-27 h 75 v 320 320 h -75 -75 z m -60,-189 c 43,-22 60,-53 60,-108 0,-42 -5,-54 -34,-83 -45,-45 -84,-46 -133,-1 -31,29 -36,40 -37,80 -1,50 23,93 65,114 31,16 44,16 79,-2 z"
         id="path182"
         style="fill:#33313b;fill-opacity:1" />
      <path
         d="m 10290,19005 v -305 h 185 185 v 55 55 h -110 -110 v 70 70 h 95 95 v 55 54 l -92,3 -93,3 -3,63 -3,62 h 111 110 v 60 60 h -185 -185 z"
         id="path184"
         style="fill:#33313b;fill-opacity:1" />
      <path
         d="m 11017,19176 c -21,-8 -47,-22 -58,-32 -18,-16 -19,-16 -19,9 0,27 0,27 -75,27 h -75 v -240 -240 h 75 75 v 149 c 0,144 1,151 24,178 19,22 32,28 66,28 34,0 47,-6 66,-28 23,-27 24,-34 24,-178 v -149 h 75 75 v 149 c 0,144 1,151 24,178 19,22 32,28 66,28 34,0 47,-6 66,-28 23,-27 24,-34 24,-178 v -149 h 75 75 v 173 c 0,159 -2,176 -22,217 -13,25 -38,54 -55,66 -37,25 -108,38 -149,28 -41,-9 -111,-50 -118,-69 -5,-13 -12,-9 -40,18 -21,21 -51,38 -79,46 -57,14 -73,13 -120,-3 z"
         id="path186"
         style="fill:#33313b;fill-opacity:1" />
      <path
         d="m 12480,19181 c -119,-26 -179,-107 -180,-242 0,-65 4,-85 28,-130 50,-96 160,-138 280,-109 60,14 134,74 150,120 l 11,30 h -82 c -56,-1 -88,-5 -101,-15 -31,-24 -80,-19 -110,11 -14,15 -26,31 -26,35 0,5 74,9 165,9 h 165 v 63 c -1,133 -80,217 -216,231 -27,2 -65,1 -84,-3 z m 121,-151 c 17,-16 28,-34 24,-40 -3,-5 -42,-10 -85,-10 -43,0 -82,5 -85,10 -12,19 51,70 85,70 22,0 41,-9 61,-30 z"
         id="path188"
         style="fill:#33313b;fill-opacity:1" />
      <path
         d="m 14218,19177 c -108,-31 -161,-108 -161,-237 0,-61 5,-89 23,-125 41,-85 134,-132 241,-122 90,8 155,50 193,125 l 17,32 h -83 c -57,-1 -89,-5 -102,-15 -31,-23 -83,-19 -111,10 -14,13 -25,29 -25,35 0,6 57,10 165,10 h 165 v 53 c 0,73 -16,122 -53,164 -58,66 -174,96 -269,70 z m 130,-137 c 19,-12 32,-28 32,-40 0,-18 -6,-20 -85,-20 -54,0 -85,4 -85,11 0,20 58,69 82,69 13,0 38,-9 56,-20 z"
         id="path190"
         style="fill:#33313b;fill-opacity:1" />
      <path
         d="m 11435,18251 c -93,-43 -130,-141 -91,-236 18,-43 59,-69 162,-100 81,-25 124,-56 124,-88 0,-26 -37,-57 -68,-57 -29,0 -72,35 -72,58 0,8 -25,12 -80,12 -77,0 -80,-1 -80,-23 0,-46 43,-111 90,-137 39,-21 58,-25 135,-25 80,0 95,3 137,27 64,38 93,88 93,160 0,91 -49,136 -187,174 -31,8 -68,24 -82,35 -35,28 -35,73 0,96 24,15 29,15 53,2 14,-8 30,-25 36,-37 9,-20 17,-22 93,-22 h 84 l -7,33 c -14,66 -35,95 -88,122 -65,32 -189,35 -252,6 z"
         id="path214"
         style="fill:#33313b;fill-opacity:1" />
      <path
         d="m 12032,18239 c -103,-51 -153,-129 -160,-250 -6,-104 15,-172 73,-237 59,-66 126,-95 225,-98 l 75,-3 35,-45 34,-46 h 94 93 l -60,78 -60,77 28,30 c 48,50 74,113 79,191 9,140 -45,243 -157,301 -57,30 -71,33 -150,33 -78,0 -95,-3 -149,-31 z m 218,-121 c 53,-27 90,-90 90,-153 0,-22 -10,-61 -22,-85 -58,-113 -194,-122 -271,-18 -32,43 -34,131 -5,188 25,48 89,90 138,90 14,0 46,-10 70,-22 z"
         id="path216"
         style="fill:#33313b;fill-opacity:1" />
      <path
         d="m 12590,17965 v -305 h 165 165 v 55 55 h -90 -90 v 250 250 h -75 -75 z"
         id="path218"
         style="fill:#33313b;fill-opacity:1" />
      <path
         d="m 13298,18203 c -3,-51 -6,-58 -25,-61 -21,-3 -23,-9 -23,-62 0,-53 2,-59 23,-62 21,-3 22,-7 27,-143 3,-97 9,-147 19,-161 24,-36 75,-54 151,-54 h 70 v 60 c 0,58 -1,60 -26,60 -59,0 -64,11 -64,130 v 110 h 45 45 v 60 60 h -45 -45 v 60 60 h -75 -74 z"
         id="path220"
         style="fill:#33313b;fill-opacity:1" />
      <path
         d="m 13787,18140 c -116,-29 -177,-112 -177,-240 0,-76 22,-136 68,-183 97,-100 301,-83 373,31 16,25 29,50 29,54 0,15 -163,9 -184,-7 -35,-26 -81,-19 -112,18 l -27,32 169,5 169,5 3,28 c 5,43 -16,128 -42,167 -46,70 -175,113 -269,90 z m 122,-146 c 53,-44 42,-54 -54,-54 -88,0 -100,7 -72,42 34,44 83,48 126,12 z"
         id="path222"
         style="fill:#33313b;fill-opacity:1" />
      <path
         d="m 13010,17900 v -240 h 70 70 v 240 240 h -70 -70 z"
         id="path224"
         style="fill:#33313b;fill-opacity:1" />
      <path
         d="m 12750,16940 v -320 h 75 c 73,0 75,1 75,25 v 25 l 42,-27 c 35,-24 52,-28 109,-28 59,0 73,4 111,30 65,45 98,118 98,214 0,83 -19,136 -62,183 -69,72 -192,85 -270,28 l -28,-21 v 106 105 h -75 -75 z m 295,26 c 41,-17 65,-60 65,-117 0,-33 -6,-47 -34,-75 -40,-40 -75,-44 -122,-15 -61,37 -69,134 -16,183 43,40 59,44 107,24 z"
         id="path226"
         style="fill:#33313b;fill-opacity:1" />
      <path
         d="m 10540,16926 v -308 l 168,4 c 158,3 170,5 217,30 115,60 172,165 163,298 -9,120 -76,208 -191,252 -41,16 -85,21 -204,26 l -153,5 z m 317,158 c 62,-46 92,-123 78,-204 -15,-89 -93,-150 -192,-150 h -53 v 191 191 l 70,-4 c 50,-3 77,-9 97,-24 z"
         id="path228"
         style="fill:#33313b;fill-opacity:1" />
      <path
         d="m 11800,17160 c 0,-53 -2,-60 -20,-60 -18,0 -20,-7 -20,-60 0,-53 2,-60 20,-60 19,0 20,-7 20,-127 0,-194 30,-233 178,-233 h 72 v 60 60 h -31 c -64,0 -69,9 -69,130 v 110 h 50 50 v 60 60 h -50 -50 v 60 60 h -75 -75 z"
         id="path230"
         style="fill:#33313b;fill-opacity:1" />
      <path
         d="m 11301,17095 c -57,-18 -116,-76 -136,-133 -18,-55 -19,-154 -1,-205 30,-84 94,-135 183,-145 52,-6 126,20 148,51 15,21 15,21 15,-11 v -32 h 75 75 v 240 240 h -75 c -74,0 -75,0 -75,-25 v -26 l -28,21 c -27,20 -89,40 -122,39 -8,0 -35,-7 -59,-14 z m 177,-160 c 24,-26 32,-44 32,-70 0,-106 -112,-162 -180,-90 -29,31 -38,101 -17,142 19,36 73,65 107,58 14,-3 40,-21 58,-40 z"
         id="path232"
         style="fill:#33313b;fill-opacity:1" />
      <path
         d="m 12285,17101 c -106,-26 -175,-124 -175,-250 0,-50 30,-131 63,-168 73,-83 203,-98 275,-31 l 22,21 v -26 c 0,-27 0,-27 75,-27 h 75 v 240 240 h -75 c -74,0 -75,0 -75,-25 0,-26 0,-26 -21,-6 -19,18 -92,42 -121,40 -7,-1 -26,-4 -43,-8 z m 125,-136 c 43,-22 60,-53 60,-108 0,-42 -5,-54 -34,-83 -44,-44 -83,-45 -130,-4 -61,54 -54,147 16,190 40,24 50,25 88,5 z"
         id="path234"
         style="fill:#33313b;fill-opacity:1" />
      <path
         d="m 13495,17101 c -106,-26 -175,-124 -175,-250 0,-50 30,-131 63,-168 73,-83 203,-98 275,-31 l 22,21 v -26 c 0,-27 0,-27 75,-27 h 75 v 240 240 h -75 c -74,0 -75,0 -75,-25 0,-26 0,-26 -21,-6 -19,18 -92,42 -121,40 -7,-1 -26,-4 -43,-8 z m 125,-136 c 43,-22 60,-53 60,-108 0,-42 -5,-54 -34,-83 -44,-44 -83,-45 -130,-4 -61,54 -54,147 16,190 40,24 50,25 88,5 z"
         id="path236"
         style="fill:#33313b;fill-opacity:1" />
      <path
         d="m 14070,17101 c -90,-19 -140,-73 -140,-149 0,-36 6,-50 33,-77 27,-27 48,-36 116,-51 96,-21 132,-43 115,-71 -16,-27 -75,-29 -99,-3 -15,17 -30,20 -93,20 h -74 l 6,-32 c 17,-84 81,-123 206,-123 75,0 91,3 131,27 52,30 74,71 73,130 -2,75 -41,104 -174,134 -38,9 -76,24 -85,34 -15,16 -15,19 0,34 22,22 71,20 95,-4 16,-16 33,-20 90,-20 66,0 70,1 70,23 0,38 -38,87 -83,107 -50,22 -138,32 -187,21 z"
         id="path238"
         style="fill:#33313b;fill-opacity:1" />
      <path
         d="m 14587,17100 c -116,-29 -177,-112 -177,-239 0,-81 16,-127 62,-176 99,-108 304,-96 379,23 16,25 29,50 29,54 0,15 -163,9 -184,-7 -35,-26 -81,-19 -112,18 l -27,32 169,5 169,5 3,28 c 5,43 -16,128 -42,167 -46,70 -175,113 -269,90 z m 122,-146 c 53,-44 42,-54 -54,-54 -88,0 -100,7 -72,42 34,44 83,48 126,12 z"
         id="path240"
         style="fill:#33313b;fill-opacity:1" />
    </g>
    <path
       d="m 14730,13730 v -101 l -30,22 c -36,27 -122,36 -175,19 -48,-16 -101,-63 -128,-114 -16,-32 -21,-59 -22,-121 0,-100 28,-164 94,-210 38,-27 50,-30 119,-30 64,0 82,4 110,23 l 32,23 v -25 c 0,-26 1,-26 75,-26 h 75 v 320 320 h -75 -75 z m -50,-197 c 35,-20 50,-52 50,-106 0,-117 -142,-150 -193,-45 -24,48 -14,99 25,138 34,35 75,39 118,13 z"
       id="path284"
       style="fill:#33313b;fill-opacity:1" />
    <path
       d="m 10090,13795 c -105,-33 -157,-141 -116,-239 20,-47 58,-73 153,-102 46,-15 95,-35 109,-46 32,-26 29,-64 -7,-91 -36,-26 -78,-13 -99,31 -15,31 -15,32 -92,32 -87,0 -87,-1 -68,-71 12,-42 51,-82 102,-103 53,-23 181,-21 233,3 90,40 132,132 104,223 -18,54 -56,80 -167,114 -46,14 -92,34 -103,45 -38,38 -12,99 43,99 25,0 50,-21 61,-52 5,-15 19,-18 88,-18 h 81 l -7,37 c -9,52 -30,88 -62,111 -59,42 -167,53 -253,27 z"
       id="path286"
       style="fill:#33313b;fill-opacity:1" />
    <path
       d="m 13170,13495 v -305 h 75 75 l 2,184 3,184 119,-184 118,-184 h 74 74 v 305 305 h -75 -75 l -2,-182 -3,-182 -115,180 -116,179 -77,3 -77,3 z"
       id="path288"
       style="fill:#33313b;fill-opacity:1" />
    <path
       d="m 10619,13652 c -39,-20 -62,-41 -84,-77 -28,-45 -30,-56 -30,-139 0,-79 3,-97 25,-136 14,-24 45,-58 68,-75 42,-28 49,-30 142,-30 93,0 100,2 141,30 45,31 89,87 89,111 0,11 -20,14 -80,14 -67,0 -86,-4 -110,-21 -20,-16 -36,-20 -55,-15 -32,8 -79,52 -70,66 4,6 73,10 172,10 h 166 l -6,65 c -14,144 -102,224 -248,225 -54,0 -77,-5 -120,-28 z m 186,-127 c 14,-13 25,-29 25,-35 0,-6 -34,-10 -91,-10 -96,0 -98,1 -56,48 29,31 90,30 122,-3 z"
       id="path290"
       style="fill:#33313b;fill-opacity:1" />
    <path
       d="m 11080,13435 v -245 h 74 75 l 3,145 c 4,168 11,183 92,192 l 46,6 v 73 c 0,70 -1,74 -22,74 -28,0 -87,-34 -94,-55 -11,-27 -24,-16 -24,20 v 35 h -75 -75 z"
       id="path292"
       style="fill:#33313b;fill-opacity:1" />
    <path
       d="m 11390,13673 c 0,-5 38,-114 84,-243 l 84,-235 98,-3 99,-2 83,237 c 45,131 82,241 82,246 0,4 -35,7 -77,7 h -78 l -49,-163 c -27,-89 -52,-168 -56,-175 -3,-7 -30,66 -60,163 l -53,175 h -79 c -43,0 -78,-3 -78,-7 z"
       id="path294"
       style="fill:#33313b;fill-opacity:1" />
    <path
       d="m 12100,13667 c -48,-16 -113,-83 -128,-133 -15,-52 -16,-145 -1,-195 28,-92 112,-149 221,-149 75,0 119,13 166,47 27,20 72,87 72,108 0,3 -37,5 -82,5 -63,0 -86,-4 -100,-17 -30,-27 -86,-22 -114,11 -13,15 -24,31 -24,37 0,5 69,9 166,9 h 166 l -4,74 c -3,64 -8,81 -34,118 -44,63 -101,91 -193,94 -42,2 -92,-2 -111,-9 z m 164,-143 c 14,-15 26,-31 26,-35 0,-5 -41,-9 -91,-9 -96,0 -98,1 -56,48 29,32 86,30 121,-4 z"
       id="path296"
       style="fill:#33313b;fill-opacity:1" />
    <path
       d="m 12540,13435 v -245 h 75 75 v 141 141 l 29,29 c 23,23 39,29 70,29 h 41 v 75 c 0,69 -2,75 -20,75 -30,0 -75,-26 -99,-56 l -21,-27 v 42 41 h -75 -75 z"
       id="path298"
       style="fill:#33313b;fill-opacity:1" />
    <path
       d="m 13961,13666 c -49,-18 -111,-74 -132,-120 -25,-56 -25,-167 0,-221 23,-49 74,-99 123,-119 22,-10 67,-16 112,-16 99,0 167,34 211,104 38,62 47,171 20,241 -20,54 -88,117 -143,133 -50,15 -147,14 -191,-2 z m 155,-134 c 66,-53 56,-170 -17,-207 -64,-34 -139,25 -139,108 0,69 40,117 100,117 19,0 45,-8 56,-18 z"
       id="path300"
       style="fill:#33313b;fill-opacity:1" />
    <path
       d="m 15104,13656 c -84,-39 -124,-110 -124,-219 0,-112 40,-186 123,-226 63,-30 178,-29 237,2 46,24 93,76 105,115 6,22 5,22 -76,22 -64,0 -87,-4 -101,-17 -30,-27 -86,-22 -114,11 -14,15 -22,32 -19,37 4,5 78,9 165,9 149,0 159,1 165,20 8,25 -10,121 -29,157 -53,102 -213,145 -332,89 z m 180,-131 c 14,-13 26,-29 26,-35 0,-6 -34,-10 -91,-10 -96,0 -98,1 -56,48 29,31 85,30 121,-3 z"
       id="path302"
       style="fill:#33313b;fill-opacity:1" />
    <path
       d="m 29440,12264 v -105 l -28,19 c -90,65 -226,42 -292,-49 -69,-96 -60,-259 18,-343 71,-76 216,-88 271,-23 19,24 31,21 31,-8 0,-24 2,-25 70,-25 h 70 v 320 320 h -70 -70 z m -59,-197 c 66,-44 70,-139 8,-191 -41,-35 -80,-33 -122,4 -40,35 -51,76 -34,127 12,38 65,83 97,83 9,0 32,-10 51,-23 z"
       id="path304"
       style="fill:#33313b;fill-opacity:1" />
    <path
       d="m 24919,12035 -106,-305 h 82 81 l 15,48 15,47 h 109 109 l 15,-47 15,-48 h 81 82 l -105,305 -105,305 h -91 -91 z m 231,10 c 17,-49 30,-92 30,-97 0,-4 -29,-8 -65,-8 -36,0 -65,3 -65,7 0,16 62,194 66,190 2,-2 18,-44 34,-92 z"
       id="path306"
       style="fill:#33313b;fill-opacity:1" />
    <path
       d="m 27870,12035 v -305 h 75 75 l 2,182 3,182 115,-180 116,-179 77,-3 77,-3 v 306 305 h -75 -75 l -2,-184 -3,-184 -119,184 -118,184 h -74 -74 z"
       id="path308"
       style="fill:#33313b;fill-opacity:1" />
    <path
       d="m 27260,12270 c 0,-53 -2,-60 -20,-60 -18,0 -20,-7 -20,-60 0,-53 2,-60 20,-60 19,0 20,-7 20,-127 0,-194 30,-233 178,-233 h 72 v 60 60 h -31 c -64,0 -69,9 -69,130 v 110 h 50 50 v 60 60 h -50 -50 v 60 60 h -75 -75 z"
       id="path310"
       style="fill:#33313b;fill-opacity:1" />
    <path
       d="m 25623,12211 c -86,-22 -146,-89 -164,-185 -23,-128 26,-241 126,-287 68,-32 167,-20 204,24 29,35 39,9 25,-62 -16,-78 -110,-108 -172,-56 -26,22 -40,25 -102,25 h -72 l 7,-27 c 24,-100 89,-146 219,-152 133,-6 202,26 242,113 23,50 24,57 24,329 v 277 h -70 c -68,0 -70,-1 -70,-25 v -25 l -37,24 c -42,27 -111,39 -160,27 z m 138,-144 c 66,-44 70,-139 8,-191 -17,-15 -43,-26 -59,-26 -67,0 -120,87 -97,158 12,37 65,82 97,82 9,0 32,-10 51,-23 z"
       id="path312"
       style="fill:#33313b;fill-opacity:1" />
    <path
       d="m 26255,12213 c -142,-34 -203,-117 -193,-267 5,-79 21,-117 69,-164 98,-95 299,-76 370,36 16,25 29,50 29,54 0,15 -163,9 -184,-7 -35,-26 -81,-19 -112,18 l -27,32 169,5 169,5 3,28 c 5,45 -17,129 -45,169 -42,61 -173,109 -248,91 z m 106,-152 c 16,-16 29,-34 29,-40 0,-7 -31,-11 -85,-11 -88,0 -100,7 -72,42 36,45 88,49 128,9 z"
       id="path314"
       style="fill:#33313b;fill-opacity:1" />
    <path
       d="m 26884,12211 c -18,-4 -46,-18 -63,-30 l -31,-22 v 25 c 0,26 -1,26 -75,26 h -75 v -240 -240 h 75 75 v 140 c 0,157 9,189 58,209 37,15 74,6 104,-26 22,-23 23,-33 26,-174 l 4,-149 h 69 69 v 170 c 0,177 -8,219 -48,263 -37,42 -125,64 -188,48 z"
       id="path316"
       style="fill:#33313b;fill-opacity:1" />
    <path
       d="m 28700,12209 c -115,-23 -190,-114 -190,-232 0,-85 18,-136 67,-184 121,-122 354,-84 417,69 20,46 21,167 3,211 -44,105 -169,162 -297,136 z m 133,-159 c 22,-25 27,-40 27,-80 0,-41 -5,-55 -31,-85 -41,-46 -84,-48 -131,-6 -30,27 -33,34 -33,89 0,46 5,65 20,82 44,49 103,49 148,0 z"
       id="path318"
       style="fill:#33313b;fill-opacity:1" />
    <path
       d="m 29857,12209 c -85,-20 -148,-77 -168,-151 -14,-55 -7,-174 14,-214 38,-74 123,-124 212,-124 55,0 127,22 162,50 26,20 73,86 73,103 0,14 -164,7 -184,-8 -32,-24 -79,-19 -109,13 -15,15 -27,31 -27,35 0,3 75,8 168,9 l 167,3 -2,61 c -3,69 -20,117 -57,157 -51,55 -168,86 -249,66 z m 124,-148 c 16,-16 29,-34 29,-40 0,-7 -31,-11 -85,-11 -88,0 -100,7 -72,42 36,45 88,49 128,9 z"
       id="path320"
       style="fill:#33313b;fill-opacity:1" />
    <g
       id="g673"
       inkscape:label="external_text"
       style="fill:#ffe8a4;fill-opacity:1">
      <path
         d="m 25525,28871 c -85,-21 -133,-69 -148,-148 l -6,-33 h 84 c 50,0 85,4 85,10 0,22 41,50 74,50 25,0 40,-7 55,-26 27,-34 26,-40 -3,-69 -16,-16 -41,-26 -75,-31 l -51,-7 v -58 -59 h 44 c 84,0 127,-36 112,-94 -8,-33 -59,-60 -95,-51 -34,8 -71,43 -71,67 0,16 -9,18 -86,18 h -86 l 7,-37 c 12,-71 38,-106 100,-138 53,-27 68,-30 154,-30 82,0 103,4 146,25 69,34 95,76 95,153 0,71 -24,118 -71,137 l -31,13 31,24 c 41,32 61,73 61,123 0,106 -91,171 -234,169 -34,-1 -74,-4 -91,-8 z"
         id="path20"
         style="fill:#ffe8a4;fill-opacity:1" />
      <path
         d="m 27001,28828 c -5,-13 -54,-138 -109,-278 -55,-140 -105,-268 -111,-283 l -11,-28 92,3 92,3 17,45 17,45 121,3 122,3 21,-51 21,-50 h 88 c 49,0 89,3 89,7 0,3 -53,141 -117,305 l -117,298 h -103 c -98,0 -104,-1 -112,-22 z m 148,-263 c 16,-44 32,-88 36,-97 6,-16 0,-18 -69,-18 -42,0 -76,4 -76,9 0,11 57,168 66,183 8,13 10,11 43,-77 z"
         id="path22"
         style="fill:#ffe8a4;fill-opacity:1" />
      <path
         d="m 24690,28540 v -300 h 80 80 v 125 c 0,69 3,125 8,124 4,0 54,-56 112,-124 l 105,-124 h 115 l 114,-1 -45,48 c -156,164 -229,244 -229,251 0,6 72,85 243,269 l 31,32 h -115 -114 l -105,-124 c -58,-69 -108,-125 -112,-125 -5,-1 -8,55 -8,124 v 125 h -80 -80 z"
         id="path24"
         style="fill:#ffe8a4;fill-opacity:1" />
      <path
         d="m 29550,28780 c 0,-57 -1,-60 -25,-60 -24,0 -25,-3 -25,-60 0,-57 1,-60 24,-60 24,0 24,0 28,-132 3,-100 8,-141 20,-164 24,-44 80,-64 178,-64 h 80 v 60 60 h -39 c -64,0 -72,16 -69,134 l 3,101 53,3 52,3 v 60 59 h -55 -55 v 60 60 h -85 -85 z"
         id="path26"
         style="fill:#ffe8a4;fill-opacity:1" />
      <path
         d="m 26045,28696 c -27,-12 -56,-30 -63,-38 -23,-28 -32,-79 -22,-119 14,-51 52,-72 175,-99 100,-21 125,-32 125,-55 0,-40 -92,-52 -121,-16 -15,18 -28,21 -103,21 h -86 l 6,-27 c 17,-77 94,-124 213,-131 42,-2 94,1 117,7 126,34 182,150 108,224 -23,23 -78,42 -218,73 -50,11 -69,39 -42,60 28,20 69,18 99,-6 20,-16 40,-20 106,-20 79,0 81,0 81,25 0,36 -53,91 -107,109 -73,25 -206,21 -268,-8 z"
         id="path28"
         style="fill:#ffe8a4;fill-opacity:1" />
      <path
         d="m 27635,28701 c -49,-23 -99,-74 -119,-123 -18,-42 -21,-135 -6,-189 15,-53 72,-113 132,-139 72,-31 172,-25 226,14 l 37,26 3,-40 c 6,-84 -59,-139 -143,-120 -20,5 -47,18 -59,29 -19,18 -35,21 -104,21 -91,0 -94,-3 -68,-63 32,-77 123,-117 266,-117 106,0 169,20 216,68 57,59 64,101 64,394 v 258 h -85 c -84,0 -85,0 -85,-25 v -24 l -46,24 c -60,32 -167,35 -229,6 z m 223,-129 c 30,-19 52,-63 52,-103 0,-47 -65,-109 -114,-109 -80,0 -133,58 -123,133 12,88 108,129 185,79 z"
         id="path30"
         style="fill:#ffe8a4;fill-opacity:1" />
      <path
         d="m 28345,28707 c -61,-24 -102,-57 -128,-106 -22,-40 -27,-61 -27,-122 0,-90 22,-142 76,-187 99,-82 296,-82 390,0 30,27 64,75 64,93 0,3 -42,5 -92,5 -66,-1 -99,-5 -112,-15 -11,-8 -38,-15 -61,-15 -32,0 -47,6 -68,28 -15,16 -24,31 -20,35 3,4 89,7 190,7 h 183 v 46 c 0,107 -60,195 -155,227 -57,20 -194,22 -240,4 z m 185,-136 c 14,-10 26,-26 28,-35 3,-14 -9,-16 -92,-16 -73,0 -96,3 -96,13 0,15 36,51 60,60 23,9 72,-1 100,-22 z"
         id="path32"
         style="fill:#ffe8a4;fill-opacity:1" />
      <path
         d="m 28850,28480 v -240 h 85 85 v 145 c 0,144 0,145 28,176 34,38 92,44 136,16 40,-26 46,-54 46,-203 v -134 h 86 86 l -4,173 c -3,162 -5,175 -28,216 -35,63 -92,91 -181,91 -75,0 -113,-11 -146,-42 l -23,-21 v 31 32 h -85 -85 z"
         id="path34"
         style="fill:#ffe8a4;fill-opacity:1" />
      <path
         d="m 30015,28705 c -45,-16 -91,-62 -101,-101 -19,-76 31,-134 134,-154 149,-29 204,-62 151,-91 -34,-18 -78,-13 -103,10 -19,18 -35,21 -104,21 -73,0 -82,-2 -82,-19 0,-31 44,-85 90,-111 40,-22 56,-25 150,-25 89,0 112,4 147,22 60,32 83,66 83,122 0,83 -35,110 -183,142 -50,11 -100,28 -110,37 -18,16 -18,17 3,34 29,24 71,23 103,-2 20,-16 40,-20 106,-20 92,0 98,7 61,68 -33,54 -106,82 -215,81 -51,0 -107,-6 -130,-14 z"
         id="path36"
         style="fill:#ffe8a4;fill-opacity:1" />
      <path
         d="m 11037,24636 c -21,-8 -48,-22 -59,-33 -25,-22 -57,-90 -58,-120 0,-22 4,-23 75,-23 56,0 75,3 75,13 0,38 69,61 102,35 49,-39 17,-101 -57,-112 l -45,-7 v -60 -59 h 45 c 35,0 52,-6 70,-25 14,-13 25,-31 25,-39 0,-30 -23,-65 -50,-76 -39,-16 -88,10 -97,50 -5,30 -6,30 -79,30 -72,0 -74,-1 -74,-25 0,-32 25,-93 48,-118 50,-56 171,-80 263,-54 86,26 129,83 129,173 0,60 -22,110 -60,132 l -31,19 24,16 c 39,25 60,81 55,144 -5,61 -28,98 -78,127 -43,25 -169,32 -223,12 z"
         id="path102"
         style="fill:#ffe8a4;fill-opacity:1" />
      <path
         d="m 11575,24608 c -102,-36 -152,-145 -111,-243 18,-43 59,-69 162,-100 113,-35 154,-85 105,-129 -31,-28 -82,-18 -106,21 -20,32 -21,32 -97,33 -75,0 -78,-1 -78,-23 0,-45 43,-111 88,-136 53,-29 151,-39 219,-22 117,30 182,143 139,245 -20,47 -58,73 -152,101 -121,37 -160,78 -121,127 26,34 56,32 92,-6 33,-35 35,-36 110,-36 h 77 l -7,38 c -11,58 -35,90 -89,117 -41,20 -64,25 -125,24 -42,0 -89,-5 -106,-11 z"
         id="path104"
         style="fill:#ffe8a4;fill-opacity:1" />
      <path
         d="m 12369,24593 c -85,-44 -118,-129 -86,-223 16,-45 61,-74 162,-105 89,-27 125,-53 125,-89 0,-62 -89,-76 -125,-19 -20,32 -21,32 -99,33 h -78 l 7,-37 c 17,-91 80,-142 189,-150 179,-15 299,96 257,237 -16,54 -59,86 -157,116 -95,30 -134,55 -134,87 0,28 9,41 38,56 27,14 54,2 78,-34 15,-23 22,-25 96,-25 h 80 l -7,38 c -18,96 -88,142 -218,142 -60,0 -83,-5 -128,-27 z"
         id="path106"
         style="fill:#ffe8a4;fill-opacity:1" />
      <path
         d="m 10320,24310 v -300 h 70 70 v 125 c 0,69 3,125 8,125 4,-1 49,-57 100,-125 l 92,-125 h 100 100 l -120,146 c -66,80 -120,149 -120,154 0,5 54,74 120,154 l 120,146 h -102 l -103,-1 -95,-127 -95,-127 -3,128 -3,127 h -69 -70 z"
         id="path108"
         style="fill:#ffe8a4;fill-opacity:1" />
      <path
         d="m 12950,24479 c -109,-45 -163,-173 -130,-309 17,-70 85,-143 150,-160 60,-16 156,-8 208,19 41,21 102,91 102,118 0,20 -163,19 -180,-2 -20,-24 -83,-19 -108,8 -42,44 -33,47 144,47 h 167 l -6,65 c -7,91 -39,151 -102,190 -43,26 -58,30 -134,32 -47,2 -97,-2 -111,-8 z m 167,-141 c 42,-39 31,-48 -62,-48 -97,0 -107,10 -53,55 37,31 77,29 115,-7 z"
         id="path110"
         style="fill:#ffe8a4;fill-opacity:1" />
      <path
         d="m 13390,24250 v -240 h 74 74 l 4,141 c 3,140 3,141 31,165 19,17 40,24 68,24 h 39 v 75 75 h -30 c -20,0 -43,-12 -70,-36 l -40,-36 v 36 36 h -75 -75 z"
         id="path112"
         style="fill:#ffe8a4;fill-opacity:1" />
      <path
         d="m 13705,24470 c 4,-11 41,-118 84,-238 l 77,-217 101,-3 101,-3 13,38 c 7,21 45,129 84,241 l 72,202 h -81 -81 l -23,-78 c -13,-42 -37,-122 -54,-176 l -31,-100 -29,95 c -16,52 -40,131 -54,177 l -25,82 h -80 c -76,0 -80,-1 -74,-20 z"
         id="path114"
         style="fill:#ffe8a4;fill-opacity:1" />
      <path
         d="m 14400,24474 c -91,-39 -136,-126 -128,-249 6,-94 39,-153 106,-192 41,-25 57,-28 132,-28 75,0 91,3 132,28 41,24 98,94 98,120 0,14 -165,7 -184,-8 -32,-24 -80,-19 -110,12 -15,14 -23,30 -19,34 5,5 80,10 168,11 l 160,3 -2,63 c -4,98 -53,172 -135,206 -48,21 -171,20 -218,0 z m 178,-140 c 12,-14 22,-29 22,-35 0,-5 -38,-9 -85,-9 -88,0 -100,7 -72,42 35,44 96,46 135,2 z"
         id="path116"
         style="fill:#ffe8a4;fill-opacity:1" />
      <path
         d="m 14850,24250 v -240 h 75 75 v 134 c 0,130 1,135 26,165 22,26 33,31 70,31 h 44 v 75 75 h -31 c -23,0 -42,-10 -70,-39 l -39,-39 v 39 39 h -75 -75 z"
         id="path118"
         style="fill:#ffe8a4;fill-opacity:1" />
      <g
         id="g1680"
         inkscape:label="externaltraffic"
         transform="translate(-2410.0975,-2548.8178)"
         style="fill:#ffe8a4;fill-opacity:1">
        <path
           d="m 53690,22300 v -320 h 75 75 v 320 320 h -75 -75 z"
           id="path122"
           style="fill:#ffe8a4;fill-opacity:1" />
        <path
           d="m 50230,22285 v -305 h 185 185 v 60 60 h -110 -111 l 3,68 3,67 98,3 97,3 v 54 55 h -100 -100 v 65 65 h 110 110 v 55 55 h -185 -185 z"
           id="path126"
           style="fill:#ffe8a4;fill-opacity:1" />
        <path
           d="m 51220,22525 c 0,-52 -1,-55 -25,-55 -24,0 -25,-2 -25,-65 0,-63 1,-65 25,-65 h 25 v -125 c 0,-191 21,-221 166,-232 l 74,-6 v 67 66 h -29 c -60,0 -61,2 -61,121 v 109 h 45 45 v 65 65 h -45 -45 v 55 55 h -75 -75 z"
           id="path128"
           style="fill:#ffe8a4;fill-opacity:1" />
        <path
           d="m 50670,22465 c 0,-3 34,-60 76,-126 l 76,-121 -76,-114 c -42,-63 -76,-116 -76,-119 0,-3 34,-5 75,-5 67,0 75,2 86,23 7,12 23,40 37,61 l 24,39 39,-61 39,-62 h 86 c 99,0 98,-15 3,136 -33,52 -62,101 -65,109 -3,7 26,60 63,117 38,57 73,109 77,116 5,9 -11,12 -68,12 h -75 l -37,-60 c -20,-33 -38,-60 -40,-60 -1,0 -19,27 -40,60 l -37,60 h -83 c -46,0 -84,-2 -84,-5 z"
           id="path136"
           style="fill:#ffe8a4;fill-opacity:1" />
        <path
           d="m 51649,22443 c -40,-21 -61,-40 -84,-77 -28,-45 -30,-57 -30,-141 0,-84 2,-95 30,-140 22,-36 45,-57 85,-78 51,-27 62,-29 138,-25 71,4 88,8 125,34 43,30 87,86 87,110 0,20 -163,20 -179,0 -37,-45 -131,-12 -131,45 0,5 71,9 165,9 h 165 v 35 c 0,114 -58,209 -147,239 -74,25 -159,21 -224,-11 z m 198,-139 c 9,-14 13,-27 11,-30 -3,-3 -45,-4 -93,-2 l -88,3 27,32 c 15,17 37,33 49,35 34,6 76,-12 94,-38 z"
           id="path138"
           style="fill:#ffe8a4;fill-opacity:1" />
        <path
           d="m 52110,22225 v -245 h 74 75 l 3,146 c 3,146 3,146 31,170 19,17 40,24 68,24 h 39 v 75 c 0,71 -1,75 -22,75 -28,0 -87,-34 -94,-55 -11,-27 -24,-16 -24,20 v 35 h -75 -75 z"
           id="path140"
           style="fill:#ffe8a4;fill-opacity:1" />
        <path
           d="m 52480,22225 v -245 h 75 75 v 149 c 0,146 1,150 26,180 34,41 92,44 129,6 24,-24 25,-28 25,-180 v -155 h 76 76 l -4,188 c -3,176 -4,189 -27,225 -31,50 -85,77 -156,77 -59,0 -85,-9 -122,-43 l -23,-20 v 31 32 h -75 -75 z"
           id="path142"
           style="fill:#ffe8a4;fill-opacity:1" />
        <path
           d="m 53185,22457 c -41,-19 -88,-67 -111,-114 -13,-27 -18,-61 -19,-118 0,-100 28,-164 93,-209 74,-52 189,-47 246,9 15,15 16,14 16,-14 v -31 h 75 75 v 245 245 h -75 c -74,0 -75,0 -75,-25 v -26 l -30,23 c -38,28 -148,36 -195,15 z m 175,-134 c 92,-54 53,-212 -51,-213 -73,0 -124,78 -99,154 22,68 89,95 150,59 z"
           id="path144"
           style="fill:#ffe8a4;fill-opacity:1" />
        <path
           d="m 52269,21611 c -68,-21 -92,-52 -104,-134 -6,-37 -11,-47 -26,-47 -17,0 -19,-8 -19,-65 0,-58 2,-65 20,-65 19,0 20,-7 20,-180 v -180 h 75 75 v 180 180 h 30 30 v 65 65 h -30 c -16,0 -30,4 -30,9 0,23 15,43 36,52 22,8 24,15 24,69 v 60 l -37,-1 c -21,0 -50,-4 -64,-8 z"
           id="path148"
           style="fill:#ffe8a4;fill-opacity:1" />
        <path
           d="m 52554,21609 c -41,-12 -81,-53 -88,-90 -3,-16 -9,-42 -12,-59 -4,-21 -11,-30 -25,-30 -17,0 -19,-8 -19,-65 0,-58 2,-65 20,-65 19,0 20,-7 20,-180 v -180 h 75 75 v 180 180 h 70 70 v -180 -180 h 75 75 v 245 245 h -145 c -81,0 -145,4 -145,9 0,23 15,43 36,52 22,8 24,15 24,69 v 60 l -37,-1 c -21,0 -52,-5 -69,-10 z"
           id="path150"
           style="fill:#ffe8a4;fill-opacity:1" />
        <path
           d="m 50620,21495 v -54 l 83,-3 82,-3 3,-247 2,-248 h 70 70 l 2,248 3,247 83,3 82,3 v 54 55 h -240 -240 z"
           id="path156"
           style="fill:#ffe8a4;fill-opacity:1" />
        <path
           d="m 51190,21185 v -245 h 75 75 v 141 141 l 29,29 c 23,23 39,29 70,29 h 41 v 76 77 l -37,-6 c -26,-4 -49,-18 -70,-42 l -33,-35 v 40 40 h -75 -75 z"
           id="path170"
           style="fill:#ffe8a4;fill-opacity:1" />
        <path
           d="m 51641,21409 c -82,-42 -129,-144 -118,-257 12,-119 87,-201 191,-210 69,-6 96,1 135,34 l 31,26 v -31 -31 h 75 75 v 245 245 h -75 c -74,0 -75,0 -75,-25 v -26 l -30,23 c -46,33 -150,37 -209,7 z m 205,-143 c 29,-29 34,-41 34,-80 0,-36 -6,-52 -31,-81 -25,-28 -38,-35 -69,-35 -75,0 -126,78 -100,154 26,80 107,101 166,42 z"
           id="path172"
           style="fill:#ffe8a4;fill-opacity:1" />
        <path
           d="m 53130,21417 c -52,-17 -114,-84 -129,-140 -21,-74 -10,-187 23,-237 44,-67 96,-94 188,-99 69,-3 85,0 134,24 54,27 93,71 109,123 6,21 5,22 -71,22 -63,0 -82,-4 -98,-19 -12,-11 -33,-23 -48,-26 -23,-6 -34,-1 -64,29 -35,35 -36,38 -32,97 3,48 10,65 31,86 32,33 78,35 110,5 20,-19 35,-22 100,-22 42,0 77,2 77,5 0,14 -33,81 -48,99 -9,10 -39,29 -67,42 -55,26 -151,31 -215,11 z"
           id="path174"
           style="fill:#ffe8a4;fill-opacity:1" />
        <path
           d="m 52755,21605 c -31,-30 -33,-82 -4,-119 27,-34 98,-37 129,-6 31,31 28,102 -6,129 -37,29 -89,27 -119,-4 z"
           id="path146"
           style="fill:#ffe8a4;fill-opacity:1" />
      </g>
      <path
         d="m 2130,14755 v -215 h 30 30 v 63 l 1,62 58,-63 c 54,-59 61,-63 95,-60 l 37,3 -72,78 -72,78 71,72 c 40,40 72,76 72,80 0,4 -17,7 -37,6 -34,0 -44,-7 -93,-65 l -55,-66 -3,121 -3,121 h -29 -30 z"
         id="path256"
         style="fill:#ffe8a4;fill-opacity:1" />
      <path
         d="m 2800,14755 v -215 h 25 c 20,0 25,5 25,26 v 26 l 30,-26 c 72,-60 182,-39 225,44 22,43 20,147 -5,187 -40,66 -145,85 -214,38 l -36,-24 v 79 c 0,79 0,80 -25,80 h -25 z m 232,28 c 72,-69 25,-203 -71,-203 -42,0 -97,50 -105,96 -10,48 19,104 64,127 42,21 75,15 112,-20 z"
         id="path258"
         style="fill:#ffe8a4;fill-opacity:1" />
      <path
         d="m 4100,14755 v -215 h 30 30 v 215 215 h -30 -30 z"
         id="path260"
         style="fill:#ffe8a4;fill-opacity:1" />
      <path
         d="m 6560,14890 v -79 l -36,24 c -45,31 -114,33 -163,7 -92,-50 -97,-221 -8,-286 42,-31 136,-30 169,2 30,27 38,28 38,2 0,-15 7,-20 25,-20 h 25 v 215 215 h -25 c -25,0 -25,-1 -25,-80 z m -52,-97 c 60,-38 66,-133 10,-185 -42,-39 -87,-38 -134,5 -65,59 -50,158 29,192 34,15 58,12 95,-12 z"
         id="path262"
         style="fill:#ffe8a4;fill-opacity:1" />
      <path
         d="m 3910,14900 c 0,-33 -3,-40 -20,-40 -15,0 -20,-7 -20,-25 0,-18 5,-25 20,-25 19,0 20,-7 20,-113 0,-143 8,-157 86,-157 47,0 54,2 54,20 0,16 -7,20 -35,20 -47,0 -55,19 -55,134 v 96 h 45 c 41,0 45,2 45,25 0,23 -4,25 -45,25 h -45 v 40 c 0,36 -2,40 -25,40 -22,0 -25,-4 -25,-40 z"
         id="path264"
         style="fill:#ffe8a4;fill-opacity:1" />
      <path
         d="m 5180,14900 c 0,-33 -3,-40 -20,-40 -15,0 -20,-7 -20,-25 0,-18 5,-25 20,-25 19,0 20,-7 20,-113 0,-143 8,-157 86,-157 47,0 54,2 54,20 0,16 -7,20 -35,20 -47,0 -55,19 -55,134 v 96 h 45 c 41,0 45,2 45,25 0,23 -4,25 -45,25 h -45 v 40 c 0,36 -2,40 -25,40 -22,0 -25,-4 -25,-40 z"
         id="path266"
         style="fill:#ffe8a4;fill-opacity:1" />
      <path
         d="m 2430,14744 c 0,-134 13,-174 65,-198 44,-21 83,-20 128,3 29,15 37,16 37,5 0,-8 10,-14 25,-14 h 25 v 160 160 h -25 -25 v -109 c 0,-103 -1,-111 -26,-140 -33,-39 -80,-42 -121,-7 -27,23 -28,28 -31,140 -4,115 -4,116 -28,116 -24,0 -24,0 -24,-116 z"
         id="path268"
         style="fill:#ffe8a4;fill-opacity:1" />
      <path
         d="m 3239,14837 c -88,-59 -93,-217 -9,-277 37,-26 108,-36 153,-21 34,12 87,61 87,82 0,20 -57,8 -80,-16 -34,-37 -92,-35 -131,4 -16,16 -29,39 -29,50 0,20 5,21 125,21 h 125 v 35 c 0,53 -25,102 -62,125 -47,29 -134,27 -179,-3 z m 137,-36 c 17,-11 36,-33 42,-50 l 11,-31 h -100 c -88,0 -99,2 -99,18 0,20 27,55 55,70 29,17 56,14 91,-7 z"
         id="path270"
         style="fill:#ffe8a4;fill-opacity:1" />
      <path
         d="m 3594,14841 c -42,-26 -64,-77 -64,-149 0,-70 26,-117 80,-144 68,-35 164,-12 200,47 26,42 25,45 -6,45 -16,0 -37,-12 -54,-30 -79,-85 -200,15 -161,133 15,44 40,66 83,73 29,5 41,1 71,-26 25,-22 44,-30 62,-28 l 27,3 -24,35 c -13,19 -35,40 -48,47 -38,19 -130,16 -166,-6 z"
         id="path272"
         style="fill:#ffe8a4;fill-opacity:1" />
      <path
         d="m 4485,14851 c -110,-48 -113,-244 -5,-303 46,-25 115,-20 160,12 l 33,23 -5,-53 c -7,-65 -39,-100 -94,-100 -40,0 -89,22 -97,45 -8,20 -57,20 -57,-1 0,-71 133,-118 225,-80 19,8 44,30 55,48 18,30 20,50 20,226 v 192 h -25 c -20,0 -25,-5 -25,-27 v -26 l -25,23 c -19,18 -39,24 -83,27 -31,1 -66,-1 -77,-6 z m 147,-68 c 51,-49 49,-125 -4,-175 -58,-54 -144,-23 -169,62 -15,51 11,107 61,133 42,21 75,15 112,-20 z"
         id="path274"
         style="fill:#ffe8a4;fill-opacity:1" />
      <path
         d="m 4875,14850 c -98,-40 -116,-221 -28,-290 32,-25 105,-35 153,-21 36,10 90,60 90,82 0,20 -57,8 -80,-16 -34,-37 -92,-35 -131,4 -16,16 -29,39 -29,50 0,20 5,21 125,21 h 125 v 35 c 0,91 -56,145 -150,144 -30,0 -64,-4 -75,-9 z m 121,-49 c 17,-11 36,-33 42,-50 l 11,-31 h -100 c -88,0 -99,2 -99,18 0,20 27,55 55,70 29,17 56,14 91,-7 z"
         id="path276"
         style="fill:#ffe8a4;fill-opacity:1" />
      <path
         d="m 5550,14625 v -235 h 25 c 25,0 25,0 25,95 0,52 2,95 5,95 3,0 19,-9 34,-21 65,-48 162,-29 208,40 29,42 32,135 6,188 -35,74 -143,98 -217,48 l -36,-24 v 24 c 0,20 -5,25 -25,25 h -25 z m 193,181 c 68,-28 93,-94 62,-160 -41,-86 -149,-86 -190,0 -29,61 -2,133 58,159 40,18 32,17 70,1 z"
         id="path278"
         style="fill:#ffe8a4;fill-opacity:1" />
      <path
         d="m 5989,14837 c -44,-29 -69,-80 -69,-140 0,-97 51,-155 143,-164 105,-10 177,58 177,167 0,101 -60,160 -161,160 -42,0 -65,-6 -90,-23 z m 157,-48 c 30,-28 47,-81 39,-119 -11,-48 -59,-90 -104,-90 -107,0 -145,142 -58,216 37,31 85,28 123,-7 z"
         id="path280"
         style="fill:#ffe8a4;fill-opacity:1" />
      <path
         d="m 6721,14834 c -24,-20 -31,-34 -31,-63 0,-52 15,-67 97,-91 86,-25 108,-49 75,-83 -30,-30 -80,-27 -106,6 -26,33 -66,37 -66,7 0,-51 81,-90 156,-75 103,19 115,149 17,170 -56,12 -111,36 -117,51 -3,9 -1,24 4,35 22,40 101,33 115,-10 4,-15 15,-21 35,-21 28,0 28,1 19,32 -5,18 -9,34 -9,35 0,12 -69,33 -109,33 -39,0 -56,-6 -80,-26 z"
         id="path282"
         style="fill:#ffe8a4;fill-opacity:1" />
      <path
         d="m 23382,7453 3,-648 28,-88 c 62,-201 171,-360 328,-482 101,-79 205,-128 364,-173 56,-15 417,-17 5045,-22 4716,-5 4988,-6 5045,-23 94,-27 234,-101 307,-161 181,-150 298,-386 298,-603 v -83 h 64 63 l 6,103 c 7,123 26,196 77,302 103,212 295,373 525,442 57,17 295,18 5030,23 4613,5 4974,7 5030,22 211,59 345,136 476,274 99,105 168,228 216,381 l 28,88 3,648 3,647 h -60 -60 l -3,-632 c -4,-702 -1,-674 -74,-827 -104,-222 -280,-373 -521,-448 l -88,-28 -4970,-5 -4970,-5 -80,-23 c -252,-71 -470,-249 -586,-479 l -43,-83 -47,90 c -124,235 -308,386 -566,467 l -88,28 -4990,5 -4990,5 -88,28 c -242,76 -417,226 -522,450 -71,151 -69,123 -73,825 l -3,632 h -60 -60 z"
         id="path322"
         style="fill:#ffe8a4;fill-opacity:1" />
      <path
         d="m 33616,4249 c -21,-17 -26,-29 -26,-65 0,-59 25,-84 84,-84 60,0 91,35 83,95 -10,71 -84,99 -141,54 z"
         id="path324"
         style="fill:#ffe8a4;fill-opacity:1" />
      <path
         d="m 36435,4245 c -18,-18 -25,-35 -25,-65 0,-55 26,-80 85,-80 57,0 85,27 85,82 0,79 -90,119 -145,63 z"
         id="path326"
         style="fill:#ffe8a4;fill-opacity:1" />
      <path
         d="m 33407,4246 c -20,-8 -45,-20 -54,-27 -23,-20 -43,-72 -43,-114 0,-31 -3,-35 -25,-35 -24,0 -25,-2 -25,-65 0,-63 1,-65 25,-65 h 25 v -180 -180 h 75 75 v 180 180 h 70 70 v -180 -180 h 75 75 v 245 245 h -146 c -145,0 -145,0 -142,23 2,12 13,26 26,32 19,9 22,17 22,72 v 63 h -32 c -18,-1 -50,-7 -71,-14 z"
         id="path328"
         style="fill:#ffe8a4;fill-opacity:1" />
      <path
         d="m 38235,4249 c -59,-18 -90,-59 -100,-131 -6,-38 -11,-48 -26,-48 -17,0 -19,-8 -19,-65 0,-58 2,-65 20,-65 19,0 20,-7 20,-180 v -180 h 75 75 v 180 180 h 30 30 v 65 65 h -30 c -16,0 -30,5 -30,11 0,23 22,49 40,49 18,0 20,7 20,65 v 65 l -37,-1 c -21,0 -51,-5 -68,-10 z"
         id="path330"
         style="fill:#ffe8a4;fill-opacity:1" />
      <path
         d="m 30530,3900 v -320 h 75 75 v 320 320 h -75 -75 z"
         id="path332"
         style="fill:#ffe8a4;fill-opacity:1" />
      <path
         d="m 41120,4120 c 0,-55 -2,-100 -5,-100 -3,0 -19,10 -35,22 -40,29 -126,36 -185,14 -52,-20 -107,-78 -126,-132 -7,-22 -13,-71 -13,-110 1,-88 37,-163 98,-203 34,-22 50,-26 116,-26 68,0 80,3 113,28 l 37,28 v -30 -31 h 70 70 v 320 320 h -70 -70 z m -62,-194 c 36,-19 57,-59 56,-107 -2,-49 -26,-87 -70,-105 -29,-12 -39,-12 -68,0 -52,22 -71,59 -67,135 1,12 16,38 35,57 37,37 70,43 114,20 z"
         id="path334"
         style="fill:#ffe8a4;fill-opacity:1" />
      <path
         d="m 27410,3885 v -305 h 185 185 v 55 55 h -110 -110 v 75 75 h 95 95 v 55 55 h -95 -95 v 65 65 h 110 110 v 55 55 h -185 -185 z"
         id="path336"
         style="fill:#ffe8a4;fill-opacity:1" />
      <path
         d="m 36070,4125 c 0,-48 -2,-55 -20,-55 -18,0 -20,-7 -20,-65 0,-57 2,-65 19,-65 18,0 19,-10 23,-133 4,-187 25,-215 168,-224 l 80,-6 v 67 66 h -38 c -21,0 -43,5 -50,12 -8,8 -12,48 -12,115 v 103 h 50 50 v 65 65 h -50 -50 v 55 55 h -75 -75 z"
         id="path338"
         style="fill:#ffe8a4;fill-opacity:1" />
      <path
         d="m 27850,4050 c 6,-11 38,-63 71,-116 33,-52 62,-101 65,-109 3,-7 -26,-60 -63,-117 -38,-57 -73,-109 -77,-115 -5,-10 11,-13 68,-13 h 76 l 38,61 39,61 37,-61 37,-61 h 85 c 46,0 84,2 84,5 0,3 -34,60 -76,126 l -76,121 76,114 c 42,63 76,116 76,119 0,3 -33,5 -73,5 h -73 l -33,-55 c -19,-31 -37,-58 -41,-60 -4,-3 -24,22 -44,55 l -37,60 h -85 c -82,0 -84,-1 -74,-20 z"
         id="path340"
         style="fill:#ffe8a4;fill-opacity:1" />
      <path
         d="m 28475,4051 c -49,-22 -98,-76 -116,-128 -8,-21 -13,-69 -13,-108 0,-58 5,-79 29,-124 44,-80 89,-106 185,-106 68,0 80,3 113,28 l 37,28 v -30 -31 h 70 70 v 245 245 h -70 -70 v -32 -31 l -22,21 c -49,45 -142,56 -213,23 z m 173,-125 c 36,-19 57,-59 56,-107 -2,-49 -26,-87 -70,-105 -66,-28 -136,25 -138,105 -2,90 77,146 152,107 z"
         id="path342"
         style="fill:#ffe8a4;fill-opacity:1" />
      <path
         d="m 28980,3825 v -245 h 74 75 l 3,156 3,156 28,24 c 18,15 41,24 62,24 21,0 44,-9 62,-24 l 28,-24 3,-156 3,-156 h 75 74 v 155 c 0,152 1,156 25,180 35,36 88,34 126,-4 l 29,-29 v -151 -151 h 76 76 l -4,183 c -4,202 -10,224 -72,272 -38,29 -111,42 -171,31 -20,-4 -53,-23 -76,-43 l -39,-35 -20,25 c -50,63 -186,75 -254,23 l -36,-27 v 30 31 h -75 -75 z"
         id="path344"
         style="fill:#ffe8a4;fill-opacity:1" />
      <path
         d="m 29920,3710 v -360 h 75 75 v 147 146 l 23,-20 c 12,-11 32,-26 44,-32 27,-14 123,-14 160,0 40,15 92,67 114,114 22,47 25,156 7,216 -16,56 -70,114 -123,134 -59,23 -145,16 -185,-13 -37,-28 -40,-27 -40,3 0,24 -2,25 -75,25 h -75 z m 326,196 c 28,-28 34,-42 34,-75 0,-56 -22,-95 -65,-115 -34,-16 -38,-16 -73,1 -77,37 -92,137 -30,195 43,40 90,38 134,-6 z"
         id="path346"
         style="fill:#ffe8a4;fill-opacity:1" />
      <path
         d="m 30917,4056 c -100,-36 -155,-135 -144,-259 12,-134 90,-209 223,-215 85,-5 133,9 180,51 34,29 64,75 64,97 0,17 -155,13 -169,-4 -39,-47 -141,-14 -141,45 0,5 71,9 165,9 h 165 v 43 c 0,78 -26,142 -75,185 -24,21 -61,44 -83,50 -52,16 -138,14 -185,-2 z m 157,-137 c 48,-38 35,-49 -59,-49 -92,0 -100,6 -60,45 30,31 82,33 119,4 z"
         id="path348"
         style="fill:#ffe8a4;fill-opacity:1" />
      <path
         d="m 31738,4060 c -52,-16 -98,-52 -126,-98 -24,-42 -27,-57 -27,-137 0,-77 3,-96 25,-135 14,-24 45,-58 68,-75 42,-28 49,-30 142,-30 93,0 100,2 142,30 40,29 87,94 88,123 0,8 -22,12 -76,12 -67,0 -80,-3 -106,-25 -38,-32 -60,-32 -99,3 -27,24 -33,37 -36,83 -4,45 -1,60 19,89 20,29 31,36 64,38 30,2 45,-2 59,-18 15,-17 30,-20 97,-20 47,0 78,4 78,10 0,6 -9,28 -20,50 -22,44 -68,82 -119,99 -39,13 -133,13 -173,1 z"
         id="path350"
         style="fill:#ffe8a4;fill-opacity:1" />
      <path
         d="m 32258,4056 c -103,-37 -158,-117 -158,-229 0,-77 19,-127 70,-177 52,-53 100,-70 191,-70 109,0 194,54 229,145 20,52 15,168 -9,219 -50,103 -201,155 -323,112 z m 163,-145 c 25,-26 29,-37 29,-85 0,-47 -4,-61 -29,-88 -40,-45 -89,-45 -134,0 -28,29 -32,39 -32,87 0,46 4,58 29,84 41,43 95,43 137,2 z"
         id="path352"
         style="fill:#ffe8a4;fill-opacity:1" />
      <path
         d="m 32700,3825 v -245 h 75 75 v 149 c 0,146 1,150 26,180 34,41 92,44 129,6 24,-24 25,-28 25,-180 v -155 h 76 76 l -4,188 c -3,182 -4,190 -28,225 -58,86 -203,104 -277,35 l -23,-21 v 31 32 h -75 -75 z"
         id="path354"
         style="fill:#ffe8a4;fill-opacity:1" />
      <path
         d="m 33982,4057 c -105,-40 -164,-175 -132,-306 25,-107 102,-171 204,-171 63,0 97,11 126,40 l 20,20 v -54 c 0,-66 -25,-102 -77,-112 -39,-7 -99,15 -109,41 -5,11 -24,15 -80,15 -81,0 -83,-1 -63,-61 28,-84 106,-124 239,-124 98,1 152,22 193,77 44,59 47,86 47,374 v 274 h -75 c -74,0 -75,0 -75,-26 v -25 l -32,22 c -38,28 -134,36 -186,16 z m 184,-151 c 28,-28 34,-42 34,-75 0,-56 -22,-95 -65,-115 -34,-16 -38,-16 -73,1 -77,37 -92,137 -30,195 43,40 90,38 134,-6 z"
         id="path356"
         style="fill:#ffe8a4;fill-opacity:1" />
      <path
         d="m 34480,3893 c 0,-152 3,-184 19,-219 26,-58 72,-87 142,-92 73,-5 99,1 138,34 l 31,26 v -31 -31 h 75 75 v 245 245 h -75 -75 v -149 c 0,-146 -1,-150 -26,-180 -20,-24 -34,-31 -63,-31 -82,0 -101,43 -101,233 v 127 h -70 -70 z"
         id="path358"
         style="fill:#ffe8a4;fill-opacity:1" />
      <path
         d="m 35090,3825 v -245 h 75 75 v 141 141 l 29,29 c 23,23 39,29 70,29 h 41 v 75 c 0,69 -2,75 -20,75 -30,0 -75,-26 -99,-56 l -21,-27 v 42 41 h -75 -75 z"
         id="path360"
         style="fill:#ffe8a4;fill-opacity:1" />
      <path
         d="m 35562,4059 c -87,-26 -149,-144 -140,-264 11,-133 92,-215 213,-215 59,0 85,9 123,43 l 22,20 v -31 -32 h 75 75 v 245 245 h -75 c -74,0 -75,0 -75,-26 v -25 l -32,22 c -36,26 -130,35 -186,18 z m 184,-153 c 28,-28 34,-42 34,-75 0,-107 -93,-160 -169,-95 -77,64 -31,203 68,204 25,0 42,-9 67,-34 z"
         id="path362"
         style="fill:#ffe8a4;fill-opacity:1" />
      <path
         d="m 36420,3825 v -245 h 75 75 v 245 245 h -75 -75 z"
         id="path364"
         style="fill:#ffe8a4;fill-opacity:1" />
      <path
         d="m 36818,4056 c -85,-33 -131,-88 -148,-177 -22,-117 23,-221 119,-271 45,-24 65,-28 130,-28 93,0 143,21 193,79 101,118 67,315 -65,383 -53,27 -175,34 -229,14 z m 162,-143 c 86,-77 11,-245 -90,-203 -49,20 -70,55 -70,117 0,47 4,59 29,84 39,39 89,40 131,2 z"
         id="path366"
         style="fill:#ffe8a4;fill-opacity:1" />
      <path
         d="m 37270,3825 v -245 h 70 70 v 135 c 0,145 11,194 48,214 34,18 79,13 109,-13 l 28,-24 3,-156 3,-156 h 75 74 v 153 c -1,220 -18,275 -103,318 -59,30 -151,24 -201,-14 l -36,-28 v 30 31 h -70 -70 z"
         id="path368"
         style="fill:#ffe8a4;fill-opacity:1" />
      <path
         d="m 38560,4061 c -111,-34 -170,-116 -170,-236 0,-73 17,-121 58,-167 52,-58 101,-78 193,-78 102,0 170,33 214,104 38,62 47,171 20,241 -20,54 -88,117 -143,133 -43,13 -133,14 -172,3 z m 143,-145 c 66,-61 39,-193 -44,-211 -36,-8 -84,17 -104,55 -41,79 7,180 85,180 25,0 45,-8 63,-24 z"
         id="path370"
         style="fill:#ffe8a4;fill-opacity:1" />
      <path
         d="m 38990,3825 v -245 h 75 75 v 141 141 l 29,29 c 23,23 39,29 70,29 h 41 v 75 c 0,69 -2,75 -20,75 -30,0 -75,-26 -99,-56 l -21,-27 v 42 41 h -75 -75 z"
         id="path372"
         style="fill:#ffe8a4;fill-opacity:1" />
      <path
         d="m 39620,3825 v -245 h 70 70 v 128 c 0,70 5,144 10,164 20,72 98,92 151,39 l 29,-29 v -151 -151 h 75 75 v 158 c 0,179 -13,242 -57,284 -37,35 -73,48 -134,48 -50,0 -129,-31 -129,-50 0,-6 -4,-10 -10,-10 -5,0 -10,14 -10,30 v 30 h -70 -70 z"
         id="path374"
         style="fill:#ffe8a4;fill-opacity:1" />
      <path
         d="m 40360,4061 c -111,-34 -170,-116 -170,-236 0,-75 17,-122 62,-171 54,-59 106,-77 206,-73 105,5 164,39 205,118 53,106 28,260 -53,320 -62,45 -175,64 -250,42 z m 136,-139 c 52,-41 61,-130 19,-180 -32,-38 -65,-46 -109,-28 -103,43 -75,226 33,226 20,0 46,-8 57,-18 z"
         id="path376"
         style="fill:#ffe8a4;fill-opacity:1" />
      <path
         d="m 41479,4042 c -89,-46 -125,-123 -117,-243 6,-83 37,-142 96,-184 42,-28 49,-30 142,-30 93,0 100,2 141,30 45,31 89,87 89,111 0,11 -20,14 -80,14 -66,0 -86,-4 -109,-21 -22,-16 -36,-19 -60,-14 -32,7 -75,51 -65,66 3,5 80,9 171,9 h 166 l -6,60 c -12,111 -47,166 -132,206 -74,35 -165,33 -236,-4 z m 186,-127 c 14,-13 25,-29 25,-35 0,-6 -34,-10 -91,-10 -96,0 -98,1 -56,48 29,31 90,30 122,-3 z"
         id="path378"
         style="fill:#ffe8a4;fill-opacity:1" />
      <path
         d="m 41993,4045 c -63,-32 -88,-76 -80,-142 8,-72 20,-80 200,-128 67,-18 82,-39 48,-67 -31,-25 -57,-23 -87,7 -22,22 -34,25 -96,25 h -71 l 6,-36 c 13,-78 90,-124 207,-124 133,0 200,49 200,146 0,89 -28,110 -206,154 -54,13 -73,35 -51,57 24,24 76,21 98,-5 15,-19 27,-22 88,-22 68,0 71,1 71,24 0,32 -39,86 -79,110 -24,14 -58,21 -115,24 -72,3 -87,1 -133,-23 z"
         id="path380"
         style="fill:#ffe8a4;fill-opacity:1" />
      <path
         d="m 29783,3218 c -27,-13 -47,-68 -38,-100 13,-43 35,-58 85,-58 52,0 74,16 85,63 19,74 -59,130 -132,95 z"
         id="path382"
         style="fill:#ffe8a4;fill-opacity:1" />
      <path
         d="m 40450,3212 c -32,-26 -38,-90 -10,-124 18,-23 29,-28 66,-28 59,0 84,25 84,84 0,36 -5,48 -26,65 -33,26 -84,27 -114,3 z"
         id="path384"
         style="fill:#ffe8a4;fill-opacity:1" />
      <path
         d="m 37960,3080 c 0,-55 -2,-100 -5,-100 -3,0 -19,10 -35,22 -36,26 -123,35 -175,18 -93,-31 -147,-117 -147,-237 0,-142 72,-232 193,-241 73,-5 99,1 138,34 l 31,26 v -31 -31 h 75 75 v 320 320 h -75 -75 z m -42,-208 c 62,-58 47,-158 -30,-195 -33,-16 -40,-16 -71,-4 -48,20 -67,52 -67,110 0,42 5,54 34,83 44,44 91,46 134,6 z"
         id="path386"
         style="fill:#ffe8a4;fill-opacity:1" />
      <path
         d="m 27570,2785 v -245 h 75 75 v 141 141 l 29,29 c 23,23 39,29 70,29 h 41 v 75 c 0,69 -2,75 -20,75 -30,0 -75,-26 -99,-56 l -21,-27 v 42 41 h -75 -75 z"
         id="path388"
         style="fill:#ffe8a4;fill-opacity:1" />
      <path
         d="m 27930,2873 c 1,-217 12,-257 91,-311 29,-21 44,-23 106,-20 55,3 79,9 102,26 l 31,23 v -26 c 0,-25 1,-25 75,-25 h 75 v 245 245 h -75 -75 v -155 c 0,-152 -1,-156 -25,-180 -17,-18 -35,-25 -62,-25 -80,1 -93,32 -93,214 v 146 h -75 -75 z"
         id="path390"
         style="fill:#ffe8a4;fill-opacity:1" />
      <path
         d="m 28540,2785 v -245 h 74 75 l 3,156 3,156 28,24 c 30,26 75,31 109,13 37,-20 48,-69 48,-214 v -135 h 70 70 v 178 c 0,164 -2,181 -22,222 -49,97 -206,123 -285,48 l -23,-21 v 31 32 h -75 -75 z"
         id="path392"
         style="fill:#ffe8a4;fill-opacity:1" />
      <path
         d="m 29150,2785 v -245 h 75 75 v 149 c 0,146 1,150 26,180 35,41 89,43 128,5 26,-27 26,-28 26,-180 v -154 h 75 75 v 173 c 0,186 -9,226 -61,274 -64,58 -185,59 -246,1 l -23,-21 v 31 32 h -75 -75 z"
         id="path394"
         style="fill:#ffe8a4;fill-opacity:1" />
      <path
         d="m 29760,2785 v -245 h 70 70 v 245 245 h -70 -70 z"
         id="path396"
         style="fill:#ffe8a4;fill-opacity:1" />
      <path
         d="m 30030,2785 v -245 h 75 75 v 135 c 0,145 11,194 48,214 34,18 79,13 109,-13 l 28,-24 3,-156 3,-156 h 76 75 l -4,178 c -3,167 -4,180 -28,222 -35,63 -94,93 -176,88 -48,-3 -69,-10 -98,-31 l -36,-28 v 30 31 h -75 -75 z"
         id="path398"
         style="fill:#ffe8a4;fill-opacity:1" />
      <path
         d="m 30734,3012 c -49,-23 -97,-79 -113,-131 -17,-60 -14,-170 8,-216 22,-47 74,-99 114,-114 37,-14 133,-14 160,0 12,6 33,21 46,33 l 23,21 -4,-59 c -4,-52 -9,-63 -38,-89 -28,-25 -39,-28 -73,-24 -23,3 -50,16 -66,31 -24,23 -35,26 -99,26 h -72 l 6,-27 c 12,-50 36,-93 64,-113 44,-32 146,-53 215,-46 89,9 141,40 179,106 l 31,55 3,283 4,282 h -76 c -74,0 -76,-1 -76,-25 0,-31 -3,-31 -41,-3 -41,31 -139,36 -195,10 z m 194,-140 c 63,-59 48,-157 -30,-195 -35,-17 -39,-17 -73,-1 -43,20 -65,59 -65,115 0,33 6,47 34,75 44,44 91,46 134,6 z"
         id="path400"
         style="fill:#ffe8a4;fill-opacity:1" />
      <path
         d="m 31450,3019 c 0,-6 41,-113 91,-239 l 90,-229 -46,-108 c -26,-59 -49,-114 -52,-120 -4,-10 15,-13 74,-13 h 80 l 148,343 c 81,188 150,350 153,360 4,16 -3,18 -73,15 l -78,-3 -55,-147 c -31,-82 -58,-148 -62,-148 -3,0 -28,68 -55,150 l -49,150 h -83 c -53,0 -83,-4 -83,-11 z"
         id="path402"
         style="fill:#ffe8a4;fill-opacity:1" />
      <path
         d="m 32200,3021 c -113,-35 -170,-115 -170,-238 0,-80 21,-133 71,-180 49,-46 97,-63 183,-63 99,0 167,34 211,104 38,62 47,171 20,241 -20,54 -88,117 -143,133 -43,13 -133,14 -172,3 z m 136,-139 c 95,-76 21,-256 -87,-212 -82,34 -93,159 -19,217 22,18 82,15 106,-5 z"
         id="path404"
         style="fill:#ffe8a4;fill-opacity:1" />
      <path
         d="m 32620,2880 c 0,-82 5,-172 11,-200 20,-93 81,-140 184,-140 59,0 85,9 123,43 l 22,20 v -31 -32 h 75 75 v 245 245 h -74 -75 l -3,-154 c -3,-148 -4,-156 -27,-180 -37,-39 -100,-37 -135,5 -25,30 -26,34 -26,180 v 149 h -75 -75 z"
         id="path406"
         style="fill:#ffe8a4;fill-opacity:1" />
      <path
         d="m 33240,2785 v -245 h 70 70 v 124 c 0,67 5,137 11,155 13,36 53,61 99,61 h 30 v 75 c 0,58 -3,75 -14,75 -30,0 -68,-21 -97,-52 l -29,-32 v 42 42 h -70 -70 z"
         id="path408"
         style="fill:#ffe8a4;fill-opacity:1" />
      <path
         d="m 33960,3015 c -82,-37 -130,-120 -130,-225 0,-88 15,-134 58,-182 46,-51 85,-68 160,-68 47,0 67,5 96,25 20,14 39,25 41,25 3,0 5,-11 5,-25 0,-24 2,-25 75,-25 h 75 v 245 245 h -75 c -73,0 -75,-1 -75,-25 0,-31 -3,-31 -41,-3 -38,29 -138,35 -189,13 z m 178,-131 c 35,-24 55,-72 49,-116 -6,-46 -29,-75 -75,-95 -29,-12 -37,-12 -68,3 -42,20 -64,59 -64,115 0,81 95,138 158,93 z"
         id="path410"
         style="fill:#ffe8a4;fill-opacity:1" />
      <path
         d="m 34470,2670 v -360 h 75 75 v 141 140 l 32,-23 c 48,-33 150,-38 207,-9 140,72 162,309 37,418 -19,17 -51,36 -71,43 -53,17 -135,8 -173,-19 l -32,-22 v 25 c 0,26 -1,26 -75,26 h -75 z m 306,211 c 77,-47 64,-171 -22,-207 -69,-29 -134,26 -134,112 0,39 5,51 34,80 40,40 75,44 122,15 z"
         id="path412"
         style="fill:#ffe8a4;fill-opacity:1" />
      <path
         d="m 35070,2670 v -360 h 75 75 v 140 c 0,77 2,140 5,140 2,0 21,-11 41,-25 29,-20 49,-25 96,-25 75,0 114,17 160,68 43,48 58,94 58,182 0,111 -57,201 -146,230 -52,17 -138,8 -174,-18 -37,-28 -40,-27 -40,3 0,24 -2,25 -75,25 h -75 z m 326,196 c 28,-28 34,-42 34,-75 0,-56 -22,-95 -64,-115 -31,-15 -39,-15 -68,-3 -46,20 -69,49 -75,95 -9,70 40,132 105,132 25,0 43,-9 68,-34 z"
         id="path414"
         style="fill:#ffe8a4;fill-opacity:1" />
      <path
         d="m 35747,3016 c -52,-19 -85,-52 -97,-96 -21,-78 18,-138 103,-160 163,-42 183,-54 148,-89 -28,-28 -65,-27 -89,4 -18,23 -27,25 -96,25 h -76 l 6,-27 c 21,-91 86,-133 205,-133 81,0 129,14 167,50 62,59 53,168 -17,204 -15,8 -59,23 -97,32 -77,19 -114,38 -114,59 0,20 16,27 58,27 26,0 41,-6 50,-21 13,-18 24,-21 89,-21 h 75 l -7,33 c -11,46 -39,82 -82,103 -49,24 -174,29 -226,10 z"
         id="path416"
         style="fill:#ffe8a4;fill-opacity:1" />
      <path
         d="m 36515,3011 c -49,-22 -98,-76 -116,-128 -8,-21 -13,-70 -13,-109 0,-94 30,-156 99,-202 47,-32 54,-34 121,-30 59,3 77,8 107,31 l 37,28 v -30 -31 h 70 70 v 245 245 h -70 -70 v -32 -31 l -22,21 c -49,45 -142,56 -213,23 z m 174,-127 c 39,-23 53,-50 53,-101 0,-54 -23,-90 -68,-109 -68,-28 -137,27 -137,110 0,90 80,142 152,100 z"
         id="path418"
         style="fill:#ffe8a4;fill-opacity:1" />
      <path
         d="m 37020,2785 v -245 h 74 75 l 3,156 3,156 28,24 c 18,15 41,24 62,24 21,0 44,-9 62,-24 l 28,-24 3,-156 3,-156 h 70 69 v 178 c 0,164 -2,181 -22,222 -49,97 -206,123 -285,48 l -23,-21 v 31 32 h -75 -75 z"
         id="path420"
         style="fill:#ffe8a4;fill-opacity:1" />
      <path
         d="m 38567,3016 c -74,-27 -116,-92 -103,-160 10,-53 51,-83 146,-107 102,-25 120,-34 120,-59 0,-43 -69,-53 -104,-15 -21,22 -31,25 -96,25 h -72 l 6,-32 c 16,-83 90,-128 206,-128 151,1 237,84 200,195 -15,46 -52,69 -144,90 -97,22 -116,31 -116,54 0,25 12,32 52,33 21,1 37,-6 49,-20 15,-19 27,-22 93,-22 h 76 l -6,28 c -20,84 -80,124 -194,129 -48,2 -89,-2 -113,-11 z"
         id="path422"
         style="fill:#ffe8a4;fill-opacity:1" />
      <path
         d="m 39089,3016 c -94,-33 -149,-118 -149,-231 0,-152 91,-245 240,-245 104,0 177,38 216,112 23,45 19,48 -60,48 -58,0 -83,-5 -111,-21 -23,-14 -44,-19 -60,-15 -31,8 -65,40 -65,61 0,13 25,15 165,15 h 165 v 41 c 0,22 -5,61 -12,87 -15,59 -85,132 -144,150 -53,15 -139,15 -185,-2 z m 156,-141 c 40,-39 32,-45 -60,-45 -94,0 -107,11 -59,49 37,29 89,27 119,-4 z"
         id="path424"
         style="fill:#ffe8a4;fill-opacity:1" />
      <path
         d="m 39520,2785 v -245 h 75 75 v 124 c 0,67 5,137 11,155 13,36 53,61 99,61 h 30 v 75 c 0,58 -3,75 -14,75 -29,0 -69,-21 -97,-51 l -29,-31 v 41 41 h -75 -75 z"
         id="path426"
         style="fill:#ffe8a4;fill-opacity:1" />
      <path
         d="m 39830,3026 c 0,-4 152,-434 165,-468 6,-15 21,-18 104,-18 h 97 l 36,103 c 20,56 59,166 87,245 l 50,143 -81,-3 -82,-3 -51,-167 c -28,-92 -53,-169 -56,-172 -2,-3 -17,36 -33,87 -15,51 -39,129 -53,175 l -25,82 h -79 c -44,0 -79,-2 -79,-4 z"
         id="path428"
         style="fill:#ffe8a4;fill-opacity:1" />
      <path
         d="m 40430,2785 v -245 h 75 75 v 245 245 h -75 -75 z"
         id="path430"
         style="fill:#ffe8a4;fill-opacity:1" />
      <path
         d="m 40804,3007 c -85,-41 -124,-111 -124,-221 0,-82 15,-129 53,-173 46,-53 98,-73 187,-72 58,0 85,5 120,23 44,22 92,79 105,124 6,21 4,22 -70,22 -68,0 -81,-3 -107,-25 -33,-28 -46,-30 -82,-14 -60,28 -76,151 -26,204 30,32 94,35 112,5 11,-17 24,-20 96,-20 82,0 83,0 77,23 -27,89 -100,138 -215,144 -64,3 -83,0 -126,-20 z"
         id="path432"
         style="fill:#ffe8a4;fill-opacity:1" />
      <path
         d="m 41324,3007 c -84,-41 -124,-111 -124,-220 0,-79 16,-129 57,-176 47,-55 102,-74 201,-70 70,4 86,8 124,34 37,27 87,94 88,118 0,4 -36,7 -80,7 -66,0 -86,-4 -109,-21 -22,-16 -36,-19 -60,-14 -28,6 -71,46 -71,66 0,5 74,9 164,9 188,0 182,-4 165,98 -19,118 -98,183 -228,189 -65,3 -84,0 -127,-20 z m 181,-137 c 16,-16 26,-32 23,-35 -3,-3 -45,-5 -93,-3 l -88,3 27,33 c 38,44 90,45 131,2 z"
         id="path434"
         style="fill:#ffe8a4;fill-opacity:1" />
      <path
         d="m 41855,3017 c -79,-32 -105,-66 -105,-139 0,-77 34,-104 162,-133 47,-10 83,-24 95,-37 17,-19 17,-20 -6,-39 -31,-26 -57,-24 -87,6 -22,22 -34,25 -96,25 h -71 l 6,-34 c 13,-83 69,-118 194,-124 70,-3 90,-1 129,18 25,13 54,37 65,54 26,42 25,115 -1,149 -22,27 -98,60 -167,72 -24,4 -53,15 -65,25 -22,18 -22,20 -6,36 24,25 77,22 99,-4 15,-19 27,-22 88,-22 68,0 71,1 71,24 0,35 -41,89 -85,111 -48,24 -175,31 -220,12 z"
         id="path436"
         style="fill:#ffe8a4;fill-opacity:1" />
      <g
         id="g1012"
         inkscape:label="k3suser"
         style="display:inline;fill:#ffe8a4;fill-opacity:1">
        <path
           d="m 2978.2296,16073.35 c -28,-11 -62,-28 -73,-38 -26,-23 -49,-74 -49,-109 0,-25 1,-25 80,-25 44,0 80,4 80,8 0,5 9,18 20,30 40,43 130,17 130,-37 0,-28 -44,-59 -96,-67 l -44,-6 v -59 -59 h 49 c 87,0 129,-63 82,-121 -28,-35 -95,-33 -127,4 -13,16 -24,35 -24,43 0,11 -17,14 -80,14 h -80 v -35 c 0,-67 52,-130 127,-156 50,-17 198,-17 246,0 94,33 142,120 117,212 -12,42 -60,99 -85,99 -7,0 7,20 31,44 42,41 44,46 44,101 0,74 -25,116 -87,146 -66,32 -188,37 -261,11 z"
           id="path262-3"
           style="display:inline;fill:#ffe8a4;fill-opacity:1" />
        <path
           d="m 2166.2296,15751.35 v -300 h 85 84 l 3,125 3,125 108,-125 108,-125 h 111 110 l -33,38 c -18,20 -78,85 -133,144 -56,60 -101,112 -101,118 0,5 48,61 108,124 59,63 119,128 133,145 l 26,31 h -114 l -113,-1 -105,-123 -105,-124 -3,124 -3,124 h -84 -85 z"
           id="path264-6"
           style="display:inline;fill:#ffe8a4;fill-opacity:1" />
        <path
           d="m 4308.2296,15839.35 c 3,-193 5,-217 25,-260 42,-92 156,-145 293,-135 87,6 134,24 186,69 68,60 74,85 74,326 v 212 h -80 -80 v -177 c 0,-206 -8,-246 -53,-273 -40,-25 -114,-26 -146,-4 -44,31 -51,69 -51,269 v 185 h -86 -86 z"
           id="path266-7"
           style="display:inline;fill:#ffe8a4;fill-opacity:1" />
        <path
           d="m 3518.2296,15906.35 c -59,-30 -82,-64 -82,-122 0,-74 39,-103 183,-134 53,-11 99,-27 110,-37 17,-18 17,-19 0,-34 -31,-28 -86,-27 -110,2 -15,17 -30,20 -100,20 -79,0 -83,-1 -83,-22 0,-39 36,-84 87,-109 41,-20 63,-24 148,-24 84,0 107,4 147,23 25,13 54,35 63,49 40,61 24,147 -33,177 -15,7 -61,21 -102,31 -114,26 -141,36 -147,52 -16,40 81,59 117,23 17,-17 33,-20 105,-20 47,0 85,3 85,7 0,4 -9,25 -20,48 -32,67 -82,89 -210,93 -98,3 -109,1 -158,-23 z"
           id="path268-5"
           style="display:inline;fill:#ffe8a4;fill-opacity:1" />
        <path
           d="m 5102.2296,15916.35 c -59,-21 -97,-64 -103,-116 -8,-85 29,-116 174,-148 103,-22 133,-35 133,-56 0,-38 -89,-49 -124,-16 -19,18 -35,21 -105,21 h -83 l 6,-32 c 14,-70 91,-118 206,-125 99,-7 180,15 227,62 28,28 33,40 33,82 0,85 -34,112 -183,144 -50,11 -100,28 -110,37 -18,16 -18,17 3,34 29,24 75,23 100,-2 17,-17 33,-20 105,-20 96,0 102,7 65,68 -33,54 -106,82 -215,81 -51,0 -107,-6 -129,-14 z"
           id="path270-3"
           style="display:inline;fill:#ffe8a4;fill-opacity:1" />
        <path
           d="m 5692.2296,15915.35 c -99,-36 -149,-111 -149,-223 1,-84 24,-142 76,-186 96,-83 282,-87 383,-10 33,25 74,79 74,98 0,14 -184,7 -204,-8 -33,-25 -99,-19 -130,11 -14,15 -26,31 -26,35 0,5 86,9 190,9 h 190 v 46 c 0,107 -60,195 -155,227 -60,21 -194,21 -249,1 z m 194,-133 c 14,-10 26,-26 28,-35 3,-14 -9,-16 -92,-16 -52,0 -97,4 -100,8 -6,10 40,56 64,65 23,9 72,-1 100,-22 z"
           id="path272-5"
           style="display:inline;fill:#ffe8a4;fill-opacity:1" />
        <path
           d="m 6206.2296,15691.35 v -240 h 85 85 v 136 136 l 29,29 c 24,24 38,29 75,29 h 46 v 75 c 0,74 0,75 -26,75 -31,0 -61,-15 -96,-48 l -28,-26 v 37 37 h -85 -85 z"
           id="path274-6"
           style="display:inline;fill:#ffe8a4;fill-opacity:1" />
      </g>
    </g>
  </g>
  <g
     id="g1521"
     inkscape:label="outercircle"
     transform="translate(-63.856681,-355.74359)"
     style="display:inline;fill:#33313b;fill-opacity:1"
     sodipodi:insensitive="true">
    <circle
       cx="5026.7661"
       cy="1354.3792"
       r="130.92914"
       id="circle2295"
       style="display:inline;fill:#ffe8a4;fill-opacity:1" />
    <circle
       id="circle1219-4-6-7"
       cy="992.13019"
       cx="5117.4438"
       r="65.670654"
       style="display:inline;fill:#33313b;fill-opacity:1"
       transform="translate(-1245.3945,362.37282)" />
    <circle
       id="circle1219-4-6-7-7"
       cy="1683.8267"
       cx="1740.1345"
       r="65.670654"
       style="display:inline;fill:#33313b;fill-opacity:1" />
    <circle
       cx="457.495"
       cy="1327.9747"
       r="130.92914"
       id="circle22423"
       style="display:inline;fill:#ffe8a4;fill-opacity:1"
       transform="translate(63.856681,355.74359)" />
  </g>
  <g
     id="g1897"
     inkscape:label="arrows"
     style="fill:#ffc61c;fill-opacity:1">
    <g
       id="g3727"
       style="display:inline;fill:#ffc61c;fill-opacity:1"
       transform="translate(-1309.2512,6.62923)">
      <path
         d="m 44913,25327 c -117,-67 -213,-124 -213,-127 0,-3 96,-60 213,-128 l 212,-122 3,95 3,96 1042,-3 1042,-3 73,-23 c 237,-73 426,-236 527,-455 73,-157 68,-92 75,-1112 6,-903 6,-921 27,-997 63,-224 198,-413 383,-537 48,-32 108,-66 134,-76 25,-10 46,-20 46,-24 0,-3 -21,-15 -47,-25 -78,-32 -216,-131 -284,-203 -111,-118 -188,-254 -232,-411 -21,-75 -21,-95 -27,-952 -6,-935 -4,-886 -55,-1030 -40,-113 -140,-250 -244,-337 -37,-30 -111,-76 -166,-103 -187,-90 -94,-84 -1262,-88 l -1033,-3 v 96 c 0,52 -3,95 -6,95 -3,0 -102,-55 -219,-122 l -212,-123 36,-21 c 20,-12 118,-69 219,-127 l 182,-106 v 94 94 l 1043,4 c 1040,3 1042,3 1127,25 296,78 543,294 645,566 61,163 58,114 65,1066 6,868 6,876 28,948 74,244 256,447 480,538 154,62 101,59 1092,59 l 1295.791,3.831 2.196,121.169 H 49651 c -528,0 -893,4 -936,10 -271,40 -514,221 -629,472 -74,159 -69,92 -76,1113 -6,908 -6,921 -28,999 -29,103 -98,246 -155,322 -53,70 -154,167 -222,214 -66,46 -201,107 -292,133 -78,22 -80,22 -1130,25 l -1052,3 -3,94 -3,95 z"
         id="path112-3"
         transform="matrix(0.1,0,0,-0.1,-2.5000001e-5,3183)"
         sodipodi:nodetypes="csccccccccccccscccccccccsscccccccccccccsccscccccccscccc"
         style="display:inline;fill:#ffc61c;fill-opacity:1" />
      <ellipse
         style="display:inline;fill:#ffc61c;fill-opacity:1;stroke-width:0.984621"
         id="ellipse3718"
         cx="5117.8901"
         cy="991.9635"
         rx="33.83025"
         ry="32.700436" />
    </g>
    <g
       id="g3713"
       style="display:inline;fill:#ffc61c;fill-opacity:1"
       transform="translate(-1367.1612,5.4002338)"
       sodipodi:insensitive="true">
      <circle
         class="st2"
         id="circle1219-4-6-5"
         style="display:inline;fill:#33313b;fill-opacity:1;stroke-width:0.735116"
         cy="992.19647"
         cx="6328.957"
         r="65.670654" />
      <ellipse
         style="display:inline;fill:#ffc61c;fill-opacity:1;stroke-width:0.984621"
         id="ellipse22411"
         cx="6329.3076"
         cy="992.77277"
         rx="33.83025"
         ry="32.700436" />
      <path
         d="m 6298.3289,985.86442 h -332.3188 l -0.3019,-9.2599 -0.2659,-9.3605 c 0,0 -42.7119,24.25683 -42.5106,24.76009 0.2013,0.6039 42.6304,24.47309 42.6304,24.47309 l -0.055,-8.8722 v -9.25991 l 332.8187,0.20132 c 0,0 -0.043,-12.64067 0,-12.68199 z"
         id="path3680"
         style="display:inline;fill:#ffc61c;fill-opacity:1;stroke-width:0.100651"
         sodipodi:nodetypes="ccccccccccc" />
    </g>
    <g
       id="g1979"
       style="fill:#ffc61c;fill-opacity:1">
      <path
         d="m 22810,25332 v -91 l -1042,-4 c -1037,-3 -1043,-3 -1126,-25 -342,-91 -589,-331 -684,-667 l -23,-80 -5,-2585 c -5,-2462 -6,-2588 -24,-2645 -57,-190 -144,-322 -283,-435 -87,-71 -209,-132 -318,-162 -78,-21 -97,-21 -982,-26 l -1553.358,-4 -0.972,-117 1570.33,-3 c 1018,-4 953,1 1108,-73 186,-87 324,-226 409,-410 75,-162 68,90 74,-2740 l 5,-2540 23,-80 c 96,-340 353,-586 700,-672 60,-15 179,-17 1109,-20 l 1042,-4 3,-92 3,-93 207,120 c 114,67 210,124 213,127 5,5 -406,249 -420,249 -2,0 -6,-42 -7,-92 l -3,-93 h -1025 c -947,0 -1030,1 -1094,18 -296,76 -518,287 -608,579 l -23,73 -5,2540 -5,2540 -23,83 c -58,218 -189,408 -366,533 l -69,49 h 1611 1611 l 3,-94 3,-93 204,118 c 112,64 207,121 212,126 5,5 -79,60 -198,128 -114,66 -210,122 -215,123 -4,2 -8,-37 -8,-87 0,-64 -4,-93 -12,-96 -7,-3 -732,-4 -1612,-3 l -1599,3 87,65 c 172,127 286,296 349,519 l 22,76 5,2585 5,2585 23,75 c 87,281 310,497 592,572 l 85,23 h 1025 1025 l 3,-92 c 1,-51 5,-93 8,-93 16,0 424,244 417,251 -10,9 -387,227 -408,235 -13,5 -15,-8 -15,-84 z"
         id="path88"
         sodipodi:nodetypes="sccccccccccccccccccccccccssccscccccccccccccsccsccccccccccccccsccs"
         transform="matrix(0.1,0,0,-0.1,0,3183)"
         style="fill:#ffc61c;fill-opacity:1" />
      <ellipse
         style="display:inline;fill:#ffc61c;fill-opacity:1;stroke-width:0.984621"
         id="ellipse3718-5"
         cx="2984.804"
         cy="1321.5583"
         rx="33.83025"
         ry="32.700436"
         transform="translate(-1309.2512,6.62923)" />
    </g>
    <g
       id="g2533"
       style="fill:#ffc61c;fill-opacity:1">
      <circle
         class="st2"
         id="circle1219-4-6-5-3"
         style="display:inline;fill:#33313b;fill-opacity:1;stroke-width:0.735116"
         cy="1329.0205"
         cx="457.74374"
         r="65.670654" />
      <path
         d="m 4483,18866 c -92,-30 -157,-89 -199,-179 -24,-53 -26,-68 -22,-150 3,-78 8,-100 33,-145 35,-65 81,-107 155,-141 44,-21 70,-25 136,-26 73,0 88,3 150,35 77,39 133,103 159,180 l 15,45 1640,3 1640,2 v -95 c 0,-52 3,-95 7,-95 8,0 433,243 430,246 -10,10 -422,244 -428,244 -5,0 -9,-41 -9,-90 v -91 l -1639,2 -1639,2 -21,57 c -46,124 -153,201 -290,207 -46,2 -93,-3 -118,-11 z"
         id="path194"
         style="display:inline;fill:#ffc61c;fill-opacity:1"
         transform="matrix(0.1,0,0,-0.1,0,3183)" />
    </g>
  </g>
</svg>
