<?xml version="1.0" encoding="UTF-8" standalone="no"?>
<svg
   width="300"
   height="245"
   data-name="Layer 1"
   version="1.1"
   id="svg57"
   sodipodi:docname="logo-inv.svg"
   inkscape:version="1.1.1 (1:1.1+202109281949+c3084ef5ed)"
   xmlns:inkscape="http://www.inkscape.org/namespaces/inkscape"
   xmlns:sodipodi="http://sodipodi.sourceforge.net/DTD/sodipodi-0.dtd"
   xmlns="http://www.w3.org/2000/svg"
   xmlns:svg="http://www.w3.org/2000/svg">
  <defs
     id="defs61" />
  <sodipodi:namedview
     id="namedview59"
     pagecolor="#ffffff"
     bordercolor="#666666"
     borderopacity="1.0"
     inkscape:pageshadow="2"
     inkscape:pageopacity="0.0"
     inkscape:pagecheckerboard="0"
     showgrid="false"
     inkscape:zoom="4.7632653"
     inkscape:cx="150.00214"
     inkscape:cy="122.5"
     inkscape:window-width="3376"
     inkscape:window-height="1376"
     inkscape:window-x="64"
     inkscape:window-y="27"
     inkscape:window-maximized="1"
     inkscape:current-layer="g55" />
  <g
     id="g55">
    <title
       id="title52">Layer 1</title>
    <path
       id="svg_4"
       fill="#ffc61c"
       d="m267.05636,1l-234.11271,0a31.52579,31.52579 0 0 0 -31.43337,31.43319l0,180.34933a31.52579,31.52579 0 0 0 31.43337,31.43319l234.11271,0a31.52579,31.52579 0 0 0 31.43337,-31.43319l0,-180.34933a31.52579,31.52579 0 0 0 -31.43337,-31.43319zm-140.05742,176.86194l-57.13449,33.20293a15.28786,15.28786 0 1 1 -15.36267,-26.43613l57.13449,-33.20282a15.28786,15.28786 0 1 1 15.36267,26.43602zm22.47666,-50.58632l-0.06869,0a15.2873,15.2873 0 0 1 -15.22082,-15.3545l0.28665,-65.81983a15.28924,15.28924 0 0 1 15.28651,-15.22158l0.06869,0a15.28782,15.28782 0 0 1 15.22084,15.35445l-0.28665,65.81983a15.28924,15.28924 0 0 1 -15.28653,15.22162zm101.09202,78.20926a15.28147,15.28147 0 0 1 -20.88367,5.59565l-57.21809,-33.03496a15.28789,15.28789 0 1 1 15.28802,-26.4793l57.21809,33.03494a15.28706,15.28706 0 0 1 5.59565,20.88367z"
       class="cls-2"
       style="fill:#ffffff" />
  </g>
  <path
     style="fill:#ffc61c;fill-opacity:1;stroke-width:0.20994"
     d="m 58.610895,212.58926 c -0.845306,-0.21502 -2.356874,-0.79682 -3.35904,-1.29288 -2.553664,-1.26402 -5.226927,-3.93597 -6.503095,-6.49989 -1.648556,-3.31208 -2.12591,-6.79564 -1.389577,-10.14065 0.438348,-1.99133 1.902283,-4.97618 3.222785,-6.571 1.818262,-2.196 -1.844038,0.0183 44.470592,-26.8876 12.00057,-6.97157 18.38458,-10.56262 19.37117,-10.89641 5.25388,-1.77751 11.05087,-0.54881 15.10066,3.20068 2.68413,2.48509 4.33954,5.67209 4.83827,9.31467 0.70131,5.12202 -1.71326,10.8472 -5.83598,13.83769 -0.70825,0.51375 -5.09371,3.14698 -9.74547,5.85163 -18.876737,10.97543 -37.381463,21.72753 -43.632937,25.35275 -7.895617,4.57865 -8.786636,4.939 -12.481178,5.04779 -1.955961,0.0576 -2.86294,-0.0132 -4.0562,-0.31678 z"
     id="path12463" />
  <path
     style="fill:#ffc61c;fill-opacity:1;stroke-width:0.20994"
     d="m 146.11825,126.79306 c -1.7164,-0.36758 -4.77526,-1.88224 -6.34087,-3.13981 -2.27293,-1.82572 -4.21786,-4.93423 -4.99954,-7.99058 -0.40153,-1.56997 -0.41535,-2.3286 -0.39142,-21.485669 0.0137,-10.922029 0.0935,-26.802001 0.17755,-35.288826 0.1697,-17.145096 0.10325,-16.359597 1.64819,-19.484073 1.86889,-3.779658 5.56267,-6.798301 9.71433,-7.938787 2.09236,-0.574784 5.93552,-0.525903 7.95954,0.101237 5.8992,1.827858 10.06553,6.59421 10.89262,12.461314 0.10769,0.763931 0.11167,15.766775 0.009,35.644371 -0.15377,29.901583 -0.21851,34.496513 -0.50232,35.654583 -1.40594,5.73671 -6.00008,10.29671 -11.56044,11.47455 -1.80973,0.38335 -4.79579,0.37959 -6.60709,-0.008 z"
     id="path12502" />
  <path
     style="fill:none;fill-opacity:1;stroke-width:0.20994"
     d="m 233.71391,212.57528 c -0.83813,-0.22707 -1.92457,-0.59115 -2.41431,-0.80908 -1.06505,-0.47393 -58.82986,-33.81238 -60.0993,-34.68577 -0.48515,-0.3338 -1.49858,-1.27277 -2.25208,-2.08661 -4.32266,-4.66887 -5.20102,-11.52109 -2.2156,-17.28409 1.04643,-2.02 3.7272,-4.85586 5.66286,-5.99044 4.41787,-2.58955 9.89012,-2.75684 14.47934,-0.44264 0.65058,0.32806 6.93304,3.91636 13.96101,7.97399 7.02798,4.05763 20.08945,11.59601 29.0255,16.75195 17.69316,10.20864 18.08218,10.46928 20.04225,13.42809 1.81715,2.74305 2.53492,5.13763 2.52922,8.43779 -0.005,2.69665 -0.3837,4.25862 -1.66821,6.87432 -1.70487,3.47172 -4.91139,6.21032 -8.80872,7.52327 -2.31506,0.7799 -5.99501,0.91797 -8.24196,0.30922 z"
     id="path12541" />
  <path
     style="fill:none;fill-opacity:1;stroke-width:0.20994"
     d="m 233.71391,212.57528 c -0.83813,-0.22707 -1.92457,-0.59115 -2.41431,-0.80908 -1.06505,-0.47393 -58.82986,-33.81238 -60.0993,-34.68577 -0.48515,-0.3338 -1.49858,-1.27277 -2.25208,-2.08661 -4.32266,-4.66887 -5.20102,-11.52109 -2.2156,-17.28409 1.04643,-2.02 3.7272,-4.85586 5.66286,-5.99044 4.41787,-2.58955 9.89012,-2.75684 14.47934,-0.44264 0.65058,0.32806 6.93304,3.91636 13.96101,7.97399 7.02798,4.05763 20.08945,11.59601 29.0255,16.75195 17.69316,10.20864 18.08218,10.46928 20.04225,13.42809 1.81715,2.74305 2.53492,5.13763 2.52922,8.43779 -0.005,2.69665 -0.3837,4.25862 -1.66821,6.87432 -1.70487,3.47172 -4.91139,6.21032 -8.80872,7.52327 -2.31506,0.7799 -5.99501,0.91797 -8.24196,0.30922 z"
     id="path12617" />
  <path
     style="fill:#ffc61c;fill-opacity:1;stroke-width:0.20994"
     d="m 233.71391,212.57528 c -0.83813,-0.22707 -1.92457,-0.59115 -2.41431,-0.80908 -1.06505,-0.47393 -58.82986,-33.81238 -60.0993,-34.68577 -0.48515,-0.3338 -1.49858,-1.27277 -2.25208,-2.08661 -4.32266,-4.66887 -5.20102,-11.52109 -2.2156,-17.28409 1.04643,-2.02 3.7272,-4.85586 5.66286,-5.99044 4.41787,-2.58955 9.89012,-2.75684 14.47934,-0.44264 0.65058,0.32806 6.93304,3.91636 13.96101,7.97399 7.02798,4.05763 20.08945,11.59601 29.0255,16.75195 17.69316,10.20864 18.08218,10.46928 20.04225,13.42809 1.81715,2.74305 2.53492,5.13763 2.52922,8.43779 -0.005,2.69665 -0.3837,4.25862 -1.66821,6.87432 -1.70487,3.47172 -4.91139,6.21032 -8.80872,7.52327 -2.31506,0.7799 -5.99501,0.91797 -8.24196,0.30922 z"
     id="path12656" />
</svg>
